<mxfile host="app.diagrams.net" modified="2024-02-16T16:27:36.747Z" agent="Mozilla/5.0 (Windows NT 10.0; Win64; x64) AppleWebKit/537.36 (KHTML, like Gecko) Chrome/120.0.0.0 Safari/537.36" etag="sRsiOnsm3hsNinuvspX3" version="23.1.5" type="github">
  <diagram name="Page-1" id="wSVl3lN-EXOrtSUrc4qx">
    <mxGraphModel dx="7043" dy="3723" grid="1" gridSize="10" guides="1" tooltips="1" connect="1" arrows="1" fold="1" page="1" pageScale="1" pageWidth="827" pageHeight="1169" background="#E8E8E8" math="0" shadow="0">
      <root>
        <mxCell id="0" />
        <mxCell id="1" parent="0" />
        <mxCell id="_dYdHnB8K-xbscIP2scY-156" value="Smelting [10 sec]" style="swimlane;whiteSpace=wrap;html=1;" parent="1" vertex="1">
          <mxGeometry x="400" y="240" width="320" height="120" as="geometry" />
        </mxCell>
        <mxCell id="_dYdHnB8K-xbscIP2scY-157" style="edgeStyle=orthogonalEdgeStyle;rounded=0;orthogonalLoop=1;jettySize=auto;html=1;exitX=1;exitY=0.5;exitDx=0;exitDy=0;entryX=0;entryY=0.5;entryDx=0;entryDy=0;" parent="_dYdHnB8K-xbscIP2scY-156" source="_dYdHnB8K-xbscIP2scY-158" target="_dYdHnB8K-xbscIP2scY-159" edge="1">
          <mxGeometry relative="1" as="geometry" />
        </mxCell>
        <mxCell id="_dYdHnB8K-xbscIP2scY-158" value="1 Ore" style="rounded=1;whiteSpace=wrap;html=1;dashed=1;strokeColor=#FF3333;" parent="_dYdHnB8K-xbscIP2scY-156" vertex="1">
          <mxGeometry x="20" y="40" width="120" height="60" as="geometry" />
        </mxCell>
        <mxCell id="_dYdHnB8K-xbscIP2scY-159" value="1-4 Product&lt;br&gt;(Dependant on Ore)" style="rounded=0;whiteSpace=wrap;html=1;glass=1;" parent="_dYdHnB8K-xbscIP2scY-156" vertex="1">
          <mxGeometry x="180" y="40" width="120" height="60" as="geometry" />
        </mxCell>
        <mxCell id="_dYdHnB8K-xbscIP2scY-160" value="Macerator [20 sec]" style="swimlane;whiteSpace=wrap;html=1;" parent="1" vertex="1">
          <mxGeometry x="-1040" y="480" width="320" height="220" as="geometry" />
        </mxCell>
        <mxCell id="_dYdHnB8K-xbscIP2scY-161" style="edgeStyle=orthogonalEdgeStyle;rounded=0;orthogonalLoop=1;jettySize=auto;html=1;exitX=1;exitY=0.5;exitDx=0;exitDy=0;entryX=0;entryY=0.5;entryDx=0;entryDy=0;" parent="_dYdHnB8K-xbscIP2scY-160" source="_dYdHnB8K-xbscIP2scY-163" target="_dYdHnB8K-xbscIP2scY-164" edge="1">
          <mxGeometry relative="1" as="geometry" />
        </mxCell>
        <mxCell id="_dYdHnB8K-xbscIP2scY-162" style="edgeStyle=orthogonalEdgeStyle;rounded=0;orthogonalLoop=1;jettySize=auto;html=1;exitX=1;exitY=0.5;exitDx=0;exitDy=0;entryX=0;entryY=0.5;entryDx=0;entryDy=0;" parent="_dYdHnB8K-xbscIP2scY-160" source="_dYdHnB8K-xbscIP2scY-163" target="_dYdHnB8K-xbscIP2scY-165" edge="1">
          <mxGeometry relative="1" as="geometry" />
        </mxCell>
        <mxCell id="_dYdHnB8K-xbscIP2scY-163" value="1 Ore" style="rounded=1;whiteSpace=wrap;html=1;dashed=1;strokeColor=#FF3333;" parent="_dYdHnB8K-xbscIP2scY-160" vertex="1">
          <mxGeometry x="20" y="90" width="120" height="60" as="geometry" />
        </mxCell>
        <mxCell id="_dYdHnB8K-xbscIP2scY-164" value="2-4 Crushed Ore" style="rounded=0;whiteSpace=wrap;html=1;strokeColor=#0066CC;" parent="_dYdHnB8K-xbscIP2scY-160" vertex="1">
          <mxGeometry x="180" y="40" width="120" height="60" as="geometry" />
        </mxCell>
        <mxCell id="_dYdHnB8K-xbscIP2scY-165" value="[HV]&lt;br&gt;14% By-Product" style="rounded=0;whiteSpace=wrap;html=1;dashed=1;" parent="_dYdHnB8K-xbscIP2scY-160" vertex="1">
          <mxGeometry x="180" y="140" width="120" height="60" as="geometry" />
        </mxCell>
        <mxCell id="_dYdHnB8K-xbscIP2scY-166" value="Hammer [0.5 sec]" style="swimlane;whiteSpace=wrap;html=1;" parent="1" vertex="1">
          <mxGeometry x="-680" y="-180" width="320" height="120" as="geometry" />
        </mxCell>
        <mxCell id="_dYdHnB8K-xbscIP2scY-167" style="edgeStyle=orthogonalEdgeStyle;rounded=0;orthogonalLoop=1;jettySize=auto;html=1;exitX=1;exitY=0.5;exitDx=0;exitDy=0;entryX=0;entryY=0.5;entryDx=0;entryDy=0;" parent="_dYdHnB8K-xbscIP2scY-166" source="_dYdHnB8K-xbscIP2scY-168" target="_dYdHnB8K-xbscIP2scY-169" edge="1">
          <mxGeometry relative="1" as="geometry" />
        </mxCell>
        <mxCell id="_dYdHnB8K-xbscIP2scY-168" value="1 Crushed Ore" style="rounded=1;whiteSpace=wrap;html=1;strokeColor=#0066CC;" parent="_dYdHnB8K-xbscIP2scY-166" vertex="1">
          <mxGeometry x="20" y="40" width="120" height="60" as="geometry" />
        </mxCell>
        <mxCell id="_dYdHnB8K-xbscIP2scY-169" value="1 Impure Pile of Dust" style="rounded=0;whiteSpace=wrap;html=1;strokeColor=#994C00;" parent="_dYdHnB8K-xbscIP2scY-166" vertex="1">
          <mxGeometry x="180" y="40" width="120" height="60" as="geometry" />
        </mxCell>
        <mxCell id="_dYdHnB8K-xbscIP2scY-170" value="Macerator [20 sec]" style="swimlane;whiteSpace=wrap;html=1;startSize=23;" parent="1" vertex="1">
          <mxGeometry x="-680" y="-440" width="320" height="220" as="geometry" />
        </mxCell>
        <mxCell id="_dYdHnB8K-xbscIP2scY-171" style="edgeStyle=orthogonalEdgeStyle;rounded=0;orthogonalLoop=1;jettySize=auto;html=1;exitX=1;exitY=0.5;exitDx=0;exitDy=0;entryX=0;entryY=0.5;entryDx=0;entryDy=0;" parent="_dYdHnB8K-xbscIP2scY-170" source="_dYdHnB8K-xbscIP2scY-173" target="_dYdHnB8K-xbscIP2scY-174" edge="1">
          <mxGeometry relative="1" as="geometry" />
        </mxCell>
        <mxCell id="_dYdHnB8K-xbscIP2scY-172" style="edgeStyle=orthogonalEdgeStyle;rounded=0;orthogonalLoop=1;jettySize=auto;html=1;exitX=1;exitY=0.5;exitDx=0;exitDy=0;entryX=0;entryY=0.5;entryDx=0;entryDy=0;" parent="_dYdHnB8K-xbscIP2scY-170" source="_dYdHnB8K-xbscIP2scY-173" target="_dYdHnB8K-xbscIP2scY-175" edge="1">
          <mxGeometry relative="1" as="geometry" />
        </mxCell>
        <mxCell id="_dYdHnB8K-xbscIP2scY-173" value="1 Crushed Ore" style="rounded=1;whiteSpace=wrap;html=1;strokeColor=#0066CC;" parent="_dYdHnB8K-xbscIP2scY-170" vertex="1">
          <mxGeometry x="20" y="90" width="120" height="60" as="geometry" />
        </mxCell>
        <mxCell id="_dYdHnB8K-xbscIP2scY-174" value="1 Impure Pile of Dust" style="rounded=0;whiteSpace=wrap;html=1;strokeColor=#994C00;" parent="_dYdHnB8K-xbscIP2scY-170" vertex="1">
          <mxGeometry x="180" y="40" width="120" height="60" as="geometry" />
        </mxCell>
        <mxCell id="_dYdHnB8K-xbscIP2scY-175" value="[HV]&lt;br&gt;14% By-Product" style="rounded=0;whiteSpace=wrap;html=1;dashed=1;" parent="_dYdHnB8K-xbscIP2scY-170" vertex="1">
          <mxGeometry x="180" y="140" width="120" height="60" as="geometry" />
        </mxCell>
        <mxCell id="_dYdHnB8K-xbscIP2scY-182" value="Ore Washing (Circuit 1) [20 sec]" style="swimlane;whiteSpace=wrap;html=1;" parent="1" vertex="1">
          <mxGeometry x="-680" y="240" width="320" height="320" as="geometry" />
        </mxCell>
        <mxCell id="_dYdHnB8K-xbscIP2scY-183" style="edgeStyle=orthogonalEdgeStyle;rounded=0;orthogonalLoop=1;jettySize=auto;html=1;exitX=1;exitY=0.5;exitDx=0;exitDy=0;entryX=0;entryY=0.5;entryDx=0;entryDy=0;" parent="_dYdHnB8K-xbscIP2scY-182" source="_dYdHnB8K-xbscIP2scY-186" target="_dYdHnB8K-xbscIP2scY-187" edge="1">
          <mxGeometry relative="1" as="geometry" />
        </mxCell>
        <mxCell id="_dYdHnB8K-xbscIP2scY-184" style="edgeStyle=orthogonalEdgeStyle;rounded=0;orthogonalLoop=1;jettySize=auto;html=1;exitX=1;exitY=0.5;exitDx=0;exitDy=0;entryX=0;entryY=0.5;entryDx=0;entryDy=0;" parent="_dYdHnB8K-xbscIP2scY-182" source="_dYdHnB8K-xbscIP2scY-186" target="_dYdHnB8K-xbscIP2scY-188" edge="1">
          <mxGeometry relative="1" as="geometry" />
        </mxCell>
        <mxCell id="_dYdHnB8K-xbscIP2scY-185" style="edgeStyle=orthogonalEdgeStyle;rounded=0;orthogonalLoop=1;jettySize=auto;html=1;exitX=1;exitY=0.5;exitDx=0;exitDy=0;entryX=0;entryY=0.5;entryDx=0;entryDy=0;" parent="_dYdHnB8K-xbscIP2scY-182" source="_dYdHnB8K-xbscIP2scY-186" target="_dYdHnB8K-xbscIP2scY-189" edge="1">
          <mxGeometry relative="1" as="geometry" />
        </mxCell>
        <mxCell id="_dYdHnB8K-xbscIP2scY-186" value="1 Crushed Ore" style="rounded=1;whiteSpace=wrap;html=1;strokeColor=#0066CC;" parent="_dYdHnB8K-xbscIP2scY-182" vertex="1">
          <mxGeometry x="20" y="90" width="120" height="60" as="geometry" />
        </mxCell>
        <mxCell id="_dYdHnB8K-xbscIP2scY-187" value="1 Purified Ore" style="rounded=0;whiteSpace=wrap;html=1;strokeColor=#00CC00;" parent="_dYdHnB8K-xbscIP2scY-182" vertex="1">
          <mxGeometry x="180" y="40" width="120" height="60" as="geometry" />
        </mxCell>
        <mxCell id="_dYdHnB8K-xbscIP2scY-188" value="0-1 By-Product" style="rounded=0;whiteSpace=wrap;html=1;dashed=1;" parent="_dYdHnB8K-xbscIP2scY-182" vertex="1">
          <mxGeometry x="180" y="140" width="120" height="60" as="geometry" />
        </mxCell>
        <mxCell id="_dYdHnB8K-xbscIP2scY-189" value="33% By-Product" style="rounded=0;whiteSpace=wrap;html=1;dashed=1;" parent="_dYdHnB8K-xbscIP2scY-182" vertex="1">
          <mxGeometry x="180" y="240" width="120" height="60" as="geometry" />
        </mxCell>
        <mxCell id="_dYdHnB8K-xbscIP2scY-190" style="edgeStyle=orthogonalEdgeStyle;rounded=0;orthogonalLoop=1;jettySize=auto;html=1;exitX=1;exitY=0.5;exitDx=0;exitDy=0;entryX=0;entryY=0.5;entryDx=0;entryDy=0;" parent="_dYdHnB8K-xbscIP2scY-182" source="_dYdHnB8K-xbscIP2scY-193" target="_dYdHnB8K-xbscIP2scY-187" edge="1">
          <mxGeometry relative="1" as="geometry" />
        </mxCell>
        <mxCell id="_dYdHnB8K-xbscIP2scY-191" style="edgeStyle=orthogonalEdgeStyle;rounded=0;orthogonalLoop=1;jettySize=auto;html=1;exitX=1;exitY=0.5;exitDx=0;exitDy=0;entryX=0;entryY=0.5;entryDx=0;entryDy=0;" parent="_dYdHnB8K-xbscIP2scY-182" source="_dYdHnB8K-xbscIP2scY-193" target="_dYdHnB8K-xbscIP2scY-188" edge="1">
          <mxGeometry relative="1" as="geometry" />
        </mxCell>
        <mxCell id="_dYdHnB8K-xbscIP2scY-192" style="edgeStyle=orthogonalEdgeStyle;rounded=0;orthogonalLoop=1;jettySize=auto;html=1;exitX=1;exitY=0.5;exitDx=0;exitDy=0;entryX=0;entryY=0.5;entryDx=0;entryDy=0;" parent="_dYdHnB8K-xbscIP2scY-182" source="_dYdHnB8K-xbscIP2scY-193" target="_dYdHnB8K-xbscIP2scY-189" edge="1">
          <mxGeometry relative="1" as="geometry" />
        </mxCell>
        <mxCell id="_dYdHnB8K-xbscIP2scY-193" value="1000L Water" style="rounded=1;whiteSpace=wrap;html=1;dashed=1;" parent="_dYdHnB8K-xbscIP2scY-182" vertex="1">
          <mxGeometry x="20" y="190" width="120" height="60" as="geometry" />
        </mxCell>
        <mxCell id="_dYdHnB8K-xbscIP2scY-194" value="Ore Washing [10 sec]" style="swimlane;whiteSpace=wrap;html=1;" parent="1" vertex="1">
          <mxGeometry x="-680" y="600" width="320" height="320" as="geometry" />
        </mxCell>
        <mxCell id="_dYdHnB8K-xbscIP2scY-195" style="edgeStyle=orthogonalEdgeStyle;rounded=0;orthogonalLoop=1;jettySize=auto;html=1;exitX=1;exitY=0.5;exitDx=0;exitDy=0;entryX=0;entryY=0.5;entryDx=0;entryDy=0;" parent="_dYdHnB8K-xbscIP2scY-194" source="_dYdHnB8K-xbscIP2scY-198" target="_dYdHnB8K-xbscIP2scY-199" edge="1">
          <mxGeometry relative="1" as="geometry" />
        </mxCell>
        <mxCell id="_dYdHnB8K-xbscIP2scY-196" style="edgeStyle=orthogonalEdgeStyle;rounded=0;orthogonalLoop=1;jettySize=auto;html=1;exitX=1;exitY=0.5;exitDx=0;exitDy=0;entryX=0;entryY=0.5;entryDx=0;entryDy=0;" parent="_dYdHnB8K-xbscIP2scY-194" source="_dYdHnB8K-xbscIP2scY-198" target="_dYdHnB8K-xbscIP2scY-200" edge="1">
          <mxGeometry relative="1" as="geometry" />
        </mxCell>
        <mxCell id="_dYdHnB8K-xbscIP2scY-197" style="edgeStyle=orthogonalEdgeStyle;rounded=0;orthogonalLoop=1;jettySize=auto;html=1;exitX=1;exitY=0.5;exitDx=0;exitDy=0;entryX=0;entryY=0.5;entryDx=0;entryDy=0;" parent="_dYdHnB8K-xbscIP2scY-194" source="_dYdHnB8K-xbscIP2scY-198" target="_dYdHnB8K-xbscIP2scY-201" edge="1">
          <mxGeometry relative="1" as="geometry" />
        </mxCell>
        <mxCell id="_dYdHnB8K-xbscIP2scY-198" value="1 Crushed Ore" style="rounded=1;whiteSpace=wrap;html=1;strokeColor=#0066CC;" parent="_dYdHnB8K-xbscIP2scY-194" vertex="1">
          <mxGeometry x="20" y="90" width="120" height="60" as="geometry" />
        </mxCell>
        <mxCell id="_dYdHnB8K-xbscIP2scY-199" value="1 Purified Ore" style="rounded=0;whiteSpace=wrap;html=1;strokeColor=#00CC00;" parent="_dYdHnB8K-xbscIP2scY-194" vertex="1">
          <mxGeometry x="180" y="40" width="120" height="60" as="geometry" />
        </mxCell>
        <mxCell id="_dYdHnB8K-xbscIP2scY-200" value="0-1 By-Product" style="rounded=0;whiteSpace=wrap;html=1;dashed=1;" parent="_dYdHnB8K-xbscIP2scY-194" vertex="1">
          <mxGeometry x="180" y="140" width="120" height="60" as="geometry" />
        </mxCell>
        <mxCell id="_dYdHnB8K-xbscIP2scY-201" value="33% By-Product" style="rounded=0;whiteSpace=wrap;html=1;dashed=1;" parent="_dYdHnB8K-xbscIP2scY-194" vertex="1">
          <mxGeometry x="180" y="240" width="120" height="60" as="geometry" />
        </mxCell>
        <mxCell id="_dYdHnB8K-xbscIP2scY-202" style="edgeStyle=orthogonalEdgeStyle;rounded=0;orthogonalLoop=1;jettySize=auto;html=1;exitX=1;exitY=0.5;exitDx=0;exitDy=0;entryX=0;entryY=0.5;entryDx=0;entryDy=0;" parent="_dYdHnB8K-xbscIP2scY-194" source="_dYdHnB8K-xbscIP2scY-205" target="_dYdHnB8K-xbscIP2scY-199" edge="1">
          <mxGeometry relative="1" as="geometry" />
        </mxCell>
        <mxCell id="_dYdHnB8K-xbscIP2scY-203" style="edgeStyle=orthogonalEdgeStyle;rounded=0;orthogonalLoop=1;jettySize=auto;html=1;exitX=1;exitY=0.5;exitDx=0;exitDy=0;entryX=0;entryY=0.5;entryDx=0;entryDy=0;" parent="_dYdHnB8K-xbscIP2scY-194" source="_dYdHnB8K-xbscIP2scY-205" target="_dYdHnB8K-xbscIP2scY-200" edge="1">
          <mxGeometry relative="1" as="geometry" />
        </mxCell>
        <mxCell id="_dYdHnB8K-xbscIP2scY-204" style="edgeStyle=orthogonalEdgeStyle;rounded=0;orthogonalLoop=1;jettySize=auto;html=1;exitX=1;exitY=0.5;exitDx=0;exitDy=0;entryX=0;entryY=0.5;entryDx=0;entryDy=0;" parent="_dYdHnB8K-xbscIP2scY-194" source="_dYdHnB8K-xbscIP2scY-205" target="_dYdHnB8K-xbscIP2scY-201" edge="1">
          <mxGeometry relative="1" as="geometry" />
        </mxCell>
        <mxCell id="_dYdHnB8K-xbscIP2scY-205" value="100L Distilled Water" style="rounded=1;whiteSpace=wrap;html=1;dashed=1;" parent="_dYdHnB8K-xbscIP2scY-194" vertex="1">
          <mxGeometry x="20" y="190" width="120" height="60" as="geometry" />
        </mxCell>
        <mxCell id="_dYdHnB8K-xbscIP2scY-216" value="Chemical Bath [10 sec]" style="swimlane;whiteSpace=wrap;html=1;dashed=1;" parent="1" vertex="1">
          <mxGeometry x="-680" y="960" width="320" height="320" as="geometry" />
        </mxCell>
        <mxCell id="_dYdHnB8K-xbscIP2scY-217" style="edgeStyle=orthogonalEdgeStyle;rounded=0;orthogonalLoop=1;jettySize=auto;html=1;exitX=1;exitY=0.5;exitDx=0;exitDy=0;entryX=0;entryY=0.5;entryDx=0;entryDy=0;" parent="_dYdHnB8K-xbscIP2scY-216" source="_dYdHnB8K-xbscIP2scY-220" target="_dYdHnB8K-xbscIP2scY-221" edge="1">
          <mxGeometry relative="1" as="geometry" />
        </mxCell>
        <mxCell id="_dYdHnB8K-xbscIP2scY-218" style="edgeStyle=orthogonalEdgeStyle;rounded=0;orthogonalLoop=1;jettySize=auto;html=1;exitX=1;exitY=0.5;exitDx=0;exitDy=0;entryX=0;entryY=0.5;entryDx=0;entryDy=0;" parent="_dYdHnB8K-xbscIP2scY-216" source="_dYdHnB8K-xbscIP2scY-220" target="_dYdHnB8K-xbscIP2scY-222" edge="1">
          <mxGeometry relative="1" as="geometry" />
        </mxCell>
        <mxCell id="_dYdHnB8K-xbscIP2scY-219" style="edgeStyle=orthogonalEdgeStyle;rounded=0;orthogonalLoop=1;jettySize=auto;html=1;exitX=1;exitY=0.5;exitDx=0;exitDy=0;entryX=0;entryY=0.5;entryDx=0;entryDy=0;" parent="_dYdHnB8K-xbscIP2scY-216" source="_dYdHnB8K-xbscIP2scY-220" target="_dYdHnB8K-xbscIP2scY-223" edge="1">
          <mxGeometry relative="1" as="geometry" />
        </mxCell>
        <mxCell id="_dYdHnB8K-xbscIP2scY-220" value="1 Crushed Ore" style="rounded=1;whiteSpace=wrap;html=1;strokeColor=#0066CC;" parent="_dYdHnB8K-xbscIP2scY-216" vertex="1">
          <mxGeometry x="20" y="90" width="120" height="60" as="geometry" />
        </mxCell>
        <mxCell id="_dYdHnB8K-xbscIP2scY-221" value="1 Purified Ore" style="rounded=0;whiteSpace=wrap;html=1;strokeColor=#00CC00;" parent="_dYdHnB8K-xbscIP2scY-216" vertex="1">
          <mxGeometry x="180" y="40" width="120" height="60" as="geometry" />
        </mxCell>
        <mxCell id="_dYdHnB8K-xbscIP2scY-222" value="70% By-Product" style="rounded=0;whiteSpace=wrap;html=1;dashed=1;" parent="_dYdHnB8K-xbscIP2scY-216" vertex="1">
          <mxGeometry x="180" y="140" width="120" height="60" as="geometry" />
        </mxCell>
        <mxCell id="_dYdHnB8K-xbscIP2scY-223" value="40% By-Product" style="rounded=0;whiteSpace=wrap;html=1;dashed=1;" parent="_dYdHnB8K-xbscIP2scY-216" vertex="1">
          <mxGeometry x="180" y="240" width="120" height="60" as="geometry" />
        </mxCell>
        <mxCell id="_dYdHnB8K-xbscIP2scY-224" style="edgeStyle=orthogonalEdgeStyle;rounded=0;orthogonalLoop=1;jettySize=auto;html=1;exitX=1;exitY=0.5;exitDx=0;exitDy=0;entryX=0;entryY=0.5;entryDx=0;entryDy=0;" parent="_dYdHnB8K-xbscIP2scY-216" source="_dYdHnB8K-xbscIP2scY-227" target="_dYdHnB8K-xbscIP2scY-221" edge="1">
          <mxGeometry relative="1" as="geometry" />
        </mxCell>
        <mxCell id="_dYdHnB8K-xbscIP2scY-225" style="edgeStyle=orthogonalEdgeStyle;rounded=0;orthogonalLoop=1;jettySize=auto;html=1;exitX=1;exitY=0.5;exitDx=0;exitDy=0;entryX=0;entryY=0.5;entryDx=0;entryDy=0;" parent="_dYdHnB8K-xbscIP2scY-216" source="_dYdHnB8K-xbscIP2scY-227" target="_dYdHnB8K-xbscIP2scY-222" edge="1">
          <mxGeometry relative="1" as="geometry" />
        </mxCell>
        <mxCell id="_dYdHnB8K-xbscIP2scY-226" style="edgeStyle=orthogonalEdgeStyle;rounded=0;orthogonalLoop=1;jettySize=auto;html=1;exitX=1;exitY=0.5;exitDx=0;exitDy=0;entryX=0;entryY=0.5;entryDx=0;entryDy=0;" parent="_dYdHnB8K-xbscIP2scY-216" source="_dYdHnB8K-xbscIP2scY-227" target="_dYdHnB8K-xbscIP2scY-223" edge="1">
          <mxGeometry relative="1" as="geometry" />
        </mxCell>
        <mxCell id="_dYdHnB8K-xbscIP2scY-227" value="100L Chemicals" style="rounded=1;whiteSpace=wrap;html=1;dashed=1;" parent="_dYdHnB8K-xbscIP2scY-216" vertex="1">
          <mxGeometry x="20" y="190" width="120" height="60" as="geometry" />
        </mxCell>
        <mxCell id="_dYdHnB8K-xbscIP2scY-228" value="Thermal Centrifuge [20 sec]" style="swimlane;whiteSpace=wrap;html=1;" parent="1" vertex="1">
          <mxGeometry x="-320" y="1570" width="320" height="320" as="geometry" />
        </mxCell>
        <mxCell id="_dYdHnB8K-xbscIP2scY-229" style="edgeStyle=orthogonalEdgeStyle;rounded=0;orthogonalLoop=1;jettySize=auto;html=1;exitX=1;exitY=0.5;exitDx=0;exitDy=0;entryX=0;entryY=0.5;entryDx=0;entryDy=0;" parent="_dYdHnB8K-xbscIP2scY-228" source="_dYdHnB8K-xbscIP2scY-232" target="_dYdHnB8K-xbscIP2scY-233" edge="1">
          <mxGeometry relative="1" as="geometry" />
        </mxCell>
        <mxCell id="_dYdHnB8K-xbscIP2scY-230" style="edgeStyle=orthogonalEdgeStyle;rounded=0;orthogonalLoop=1;jettySize=auto;html=1;exitX=1;exitY=0.5;exitDx=0;exitDy=0;entryX=0;entryY=0.5;entryDx=0;entryDy=0;" parent="_dYdHnB8K-xbscIP2scY-228" source="_dYdHnB8K-xbscIP2scY-232" target="_dYdHnB8K-xbscIP2scY-234" edge="1">
          <mxGeometry relative="1" as="geometry" />
        </mxCell>
        <mxCell id="_dYdHnB8K-xbscIP2scY-231" style="edgeStyle=orthogonalEdgeStyle;rounded=0;orthogonalLoop=1;jettySize=auto;html=1;exitX=1;exitY=0.5;exitDx=0;exitDy=0;entryX=0;entryY=0.5;entryDx=0;entryDy=0;" parent="_dYdHnB8K-xbscIP2scY-228" source="_dYdHnB8K-xbscIP2scY-232" target="_dYdHnB8K-xbscIP2scY-235" edge="1">
          <mxGeometry relative="1" as="geometry" />
        </mxCell>
        <mxCell id="_dYdHnB8K-xbscIP2scY-232" value="1 Crushed Ore" style="rounded=1;whiteSpace=wrap;html=1;strokeColor=#0066CC;" parent="_dYdHnB8K-xbscIP2scY-228" vertex="1">
          <mxGeometry x="20" y="140" width="120" height="60" as="geometry" />
        </mxCell>
        <mxCell id="_dYdHnB8K-xbscIP2scY-233" value="1 Centrifuged Ore" style="rounded=0;whiteSpace=wrap;html=1;strokeColor=#0000CC;" parent="_dYdHnB8K-xbscIP2scY-228" vertex="1">
          <mxGeometry x="180" y="40" width="120" height="60" as="geometry" />
        </mxCell>
        <mxCell id="_dYdHnB8K-xbscIP2scY-234" value="0-1 By-Product" style="rounded=0;whiteSpace=wrap;html=1;dashed=1;" parent="_dYdHnB8K-xbscIP2scY-228" vertex="1">
          <mxGeometry x="180" y="140" width="120" height="60" as="geometry" />
        </mxCell>
        <mxCell id="_dYdHnB8K-xbscIP2scY-235" value="33% By-Product" style="rounded=0;whiteSpace=wrap;html=1;dashed=1;" parent="_dYdHnB8K-xbscIP2scY-228" vertex="1">
          <mxGeometry x="180" y="240" width="120" height="60" as="geometry" />
        </mxCell>
        <mxCell id="_dYdHnB8K-xbscIP2scY-236" value="Smelting [10 sec]" style="swimlane;whiteSpace=wrap;html=1;dashed=1;" parent="1" vertex="1">
          <mxGeometry x="400" y="880" width="320" height="120" as="geometry" />
        </mxCell>
        <mxCell id="_dYdHnB8K-xbscIP2scY-237" style="edgeStyle=orthogonalEdgeStyle;rounded=0;orthogonalLoop=1;jettySize=auto;html=1;exitX=1;exitY=0.5;exitDx=0;exitDy=0;entryX=0;entryY=0.5;entryDx=0;entryDy=0;" parent="_dYdHnB8K-xbscIP2scY-236" source="_dYdHnB8K-xbscIP2scY-238" target="_dYdHnB8K-xbscIP2scY-239" edge="1">
          <mxGeometry relative="1" as="geometry" />
        </mxCell>
        <mxCell id="_dYdHnB8K-xbscIP2scY-238" value="1 Purified Ore" style="rounded=1;whiteSpace=wrap;html=1;strokeColor=#00CC00;" parent="_dYdHnB8K-xbscIP2scY-236" vertex="1">
          <mxGeometry x="20" y="40" width="120" height="60" as="geometry" />
        </mxCell>
        <mxCell id="_dYdHnB8K-xbscIP2scY-239" value="1 Product" style="rounded=0;whiteSpace=wrap;html=1;glass=1;strokeColor=#331A00;" parent="_dYdHnB8K-xbscIP2scY-236" vertex="1">
          <mxGeometry x="180" y="40" width="120" height="60" as="geometry" />
        </mxCell>
        <mxCell id="_dYdHnB8K-xbscIP2scY-244" value="Macerator [20 sec]" style="swimlane;whiteSpace=wrap;html=1;startSize=23;" parent="1" vertex="1">
          <mxGeometry x="-320" y="600" width="320" height="220" as="geometry" />
        </mxCell>
        <mxCell id="_dYdHnB8K-xbscIP2scY-245" style="edgeStyle=orthogonalEdgeStyle;rounded=0;orthogonalLoop=1;jettySize=auto;html=1;exitX=1;exitY=0.5;exitDx=0;exitDy=0;entryX=0;entryY=0.5;entryDx=0;entryDy=0;" parent="_dYdHnB8K-xbscIP2scY-244" source="_dYdHnB8K-xbscIP2scY-247" target="_dYdHnB8K-xbscIP2scY-248" edge="1">
          <mxGeometry relative="1" as="geometry" />
        </mxCell>
        <mxCell id="_dYdHnB8K-xbscIP2scY-246" style="edgeStyle=orthogonalEdgeStyle;rounded=0;orthogonalLoop=1;jettySize=auto;html=1;exitX=1;exitY=0.5;exitDx=0;exitDy=0;entryX=0;entryY=0.5;entryDx=0;entryDy=0;" parent="_dYdHnB8K-xbscIP2scY-244" source="_dYdHnB8K-xbscIP2scY-247" target="_dYdHnB8K-xbscIP2scY-249" edge="1">
          <mxGeometry relative="1" as="geometry" />
        </mxCell>
        <mxCell id="_dYdHnB8K-xbscIP2scY-247" value="1 Purified Ore" style="rounded=1;whiteSpace=wrap;html=1;strokeColor=#00CC00;" parent="_dYdHnB8K-xbscIP2scY-244" vertex="1">
          <mxGeometry x="20" y="90" width="120" height="60" as="geometry" />
        </mxCell>
        <mxCell id="_dYdHnB8K-xbscIP2scY-248" value="1 Purified Pile of Dust" style="rounded=0;whiteSpace=wrap;html=1;strokeColor=#99004D;" parent="_dYdHnB8K-xbscIP2scY-244" vertex="1">
          <mxGeometry x="180" y="40" width="120" height="60" as="geometry" />
        </mxCell>
        <mxCell id="_dYdHnB8K-xbscIP2scY-249" value="[HV]&lt;br&gt;14% By-Product" style="rounded=0;whiteSpace=wrap;html=1;dashed=1;" parent="_dYdHnB8K-xbscIP2scY-244" vertex="1">
          <mxGeometry x="180" y="140" width="120" height="60" as="geometry" />
        </mxCell>
        <mxCell id="_dYdHnB8K-xbscIP2scY-260" value="Sifter [20 sec]" style="swimlane;whiteSpace=wrap;html=1;dashed=1;" parent="1" vertex="1">
          <mxGeometry x="-320" y="860" width="320" height="420" as="geometry" />
        </mxCell>
        <mxCell id="_dYdHnB8K-xbscIP2scY-261" style="edgeStyle=orthogonalEdgeStyle;rounded=0;orthogonalLoop=1;jettySize=auto;html=1;exitX=1;exitY=0.5;exitDx=0;exitDy=0;entryX=0;entryY=0.5;entryDx=0;entryDy=0;" parent="_dYdHnB8K-xbscIP2scY-260" source="_dYdHnB8K-xbscIP2scY-265" target="_dYdHnB8K-xbscIP2scY-266" edge="1">
          <mxGeometry relative="1" as="geometry" />
        </mxCell>
        <mxCell id="_dYdHnB8K-xbscIP2scY-262" style="edgeStyle=orthogonalEdgeStyle;rounded=0;orthogonalLoop=1;jettySize=auto;html=1;exitX=1;exitY=0.5;exitDx=0;exitDy=0;entryX=0;entryY=0.5;entryDx=0;entryDy=0;" parent="_dYdHnB8K-xbscIP2scY-260" source="_dYdHnB8K-xbscIP2scY-265" target="_dYdHnB8K-xbscIP2scY-267" edge="1">
          <mxGeometry relative="1" as="geometry" />
        </mxCell>
        <mxCell id="_dYdHnB8K-xbscIP2scY-263" style="edgeStyle=orthogonalEdgeStyle;rounded=0;orthogonalLoop=1;jettySize=auto;html=1;exitX=1;exitY=0.5;exitDx=0;exitDy=0;entryX=0;entryY=0.5;entryDx=0;entryDy=0;" parent="_dYdHnB8K-xbscIP2scY-260" source="_dYdHnB8K-xbscIP2scY-265" target="_dYdHnB8K-xbscIP2scY-268" edge="1">
          <mxGeometry relative="1" as="geometry" />
        </mxCell>
        <mxCell id="_dYdHnB8K-xbscIP2scY-264" style="edgeStyle=orthogonalEdgeStyle;rounded=0;orthogonalLoop=1;jettySize=auto;html=1;exitX=1;exitY=0.5;exitDx=0;exitDy=0;entryX=0;entryY=0.5;entryDx=0;entryDy=0;" parent="_dYdHnB8K-xbscIP2scY-260" source="_dYdHnB8K-xbscIP2scY-265" target="_dYdHnB8K-xbscIP2scY-269" edge="1">
          <mxGeometry relative="1" as="geometry" />
        </mxCell>
        <mxCell id="_dYdHnB8K-xbscIP2scY-265" value="1 Purified Ore" style="rounded=1;whiteSpace=wrap;html=1;strokeColor=#00CC00;" parent="_dYdHnB8K-xbscIP2scY-260" vertex="1">
          <mxGeometry x="20" y="190" width="120" height="60" as="geometry" />
        </mxCell>
        <mxCell id="_dYdHnB8K-xbscIP2scY-266" value="50% Purified Pile of Dust" style="rounded=0;whiteSpace=wrap;html=1;strokeColor=#99004D;" parent="_dYdHnB8K-xbscIP2scY-260" vertex="1">
          <mxGeometry x="180" y="40" width="120" height="60" as="geometry" />
        </mxCell>
        <mxCell id="_dYdHnB8K-xbscIP2scY-267" value="35% By-Product" style="rounded=0;whiteSpace=wrap;html=1;dashed=1;" parent="_dYdHnB8K-xbscIP2scY-260" vertex="1">
          <mxGeometry x="180" y="140" width="120" height="60" as="geometry" />
        </mxCell>
        <mxCell id="_dYdHnB8K-xbscIP2scY-268" value="10% By-Product" style="rounded=0;whiteSpace=wrap;html=1;dashed=1;" parent="_dYdHnB8K-xbscIP2scY-260" vertex="1">
          <mxGeometry x="180" y="240" width="120" height="60" as="geometry" />
        </mxCell>
        <mxCell id="_dYdHnB8K-xbscIP2scY-269" value="3% By-Product" style="rounded=0;whiteSpace=wrap;html=1;dashed=1;" parent="_dYdHnB8K-xbscIP2scY-260" vertex="1">
          <mxGeometry x="180" y="340" width="120" height="60" as="geometry" />
        </mxCell>
        <mxCell id="_dYdHnB8K-xbscIP2scY-270" value="Thermal Centrifuge [20 secs]" style="swimlane;whiteSpace=wrap;html=1;" parent="1" vertex="1">
          <mxGeometry x="-320" y="1320" width="320" height="220" as="geometry" />
        </mxCell>
        <mxCell id="_dYdHnB8K-xbscIP2scY-271" style="edgeStyle=orthogonalEdgeStyle;rounded=0;orthogonalLoop=1;jettySize=auto;html=1;exitX=1;exitY=0.5;exitDx=0;exitDy=0;entryX=0;entryY=0.5;entryDx=0;entryDy=0;" parent="_dYdHnB8K-xbscIP2scY-270" source="_dYdHnB8K-xbscIP2scY-273" target="_dYdHnB8K-xbscIP2scY-274" edge="1">
          <mxGeometry relative="1" as="geometry" />
        </mxCell>
        <mxCell id="_dYdHnB8K-xbscIP2scY-272" style="edgeStyle=orthogonalEdgeStyle;rounded=0;orthogonalLoop=1;jettySize=auto;html=1;exitX=1;exitY=0.5;exitDx=0;exitDy=0;entryX=0;entryY=0.5;entryDx=0;entryDy=0;" parent="_dYdHnB8K-xbscIP2scY-270" source="_dYdHnB8K-xbscIP2scY-273" target="_dYdHnB8K-xbscIP2scY-275" edge="1">
          <mxGeometry relative="1" as="geometry" />
        </mxCell>
        <mxCell id="_dYdHnB8K-xbscIP2scY-273" value="1 Purified Ore" style="rounded=1;whiteSpace=wrap;html=1;strokeColor=#00CC00;" parent="_dYdHnB8K-xbscIP2scY-270" vertex="1">
          <mxGeometry x="20" y="90" width="120" height="60" as="geometry" />
        </mxCell>
        <mxCell id="_dYdHnB8K-xbscIP2scY-274" value="1 Centrifuged Ore" style="rounded=0;whiteSpace=wrap;html=1;strokeColor=#0000CC;" parent="_dYdHnB8K-xbscIP2scY-270" vertex="1">
          <mxGeometry x="180" y="40" width="120" height="60" as="geometry" />
        </mxCell>
        <mxCell id="_dYdHnB8K-xbscIP2scY-275" value="33% By-Product" style="rounded=0;whiteSpace=wrap;html=1;dashed=1;" parent="_dYdHnB8K-xbscIP2scY-270" vertex="1">
          <mxGeometry x="180" y="140" width="120" height="60" as="geometry" />
        </mxCell>
        <mxCell id="_dYdHnB8K-xbscIP2scY-276" value="Smelting [10 sec]" style="swimlane;whiteSpace=wrap;html=1;" parent="1" vertex="1">
          <mxGeometry x="400" y="1200" width="320" height="120" as="geometry" />
        </mxCell>
        <mxCell id="_dYdHnB8K-xbscIP2scY-277" style="edgeStyle=orthogonalEdgeStyle;rounded=0;orthogonalLoop=1;jettySize=auto;html=1;exitX=1;exitY=0.5;exitDx=0;exitDy=0;entryX=0;entryY=0.5;entryDx=0;entryDy=0;" parent="_dYdHnB8K-xbscIP2scY-276" source="_dYdHnB8K-xbscIP2scY-278" target="_dYdHnB8K-xbscIP2scY-279" edge="1">
          <mxGeometry relative="1" as="geometry" />
        </mxCell>
        <mxCell id="_dYdHnB8K-xbscIP2scY-278" value="1 Centrifuged Ore" style="rounded=1;whiteSpace=wrap;html=1;strokeColor=#0000CC;" parent="_dYdHnB8K-xbscIP2scY-276" vertex="1">
          <mxGeometry x="20" y="40" width="120" height="60" as="geometry" />
        </mxCell>
        <mxCell id="_dYdHnB8K-xbscIP2scY-279" value="1 Product" style="rounded=0;whiteSpace=wrap;html=1;glass=1;strokeColor=#331A00;" parent="_dYdHnB8K-xbscIP2scY-276" vertex="1">
          <mxGeometry x="180" y="40" width="120" height="60" as="geometry" />
        </mxCell>
        <mxCell id="_dYdHnB8K-xbscIP2scY-280" value="Hammer [0.5 sec]" style="swimlane;whiteSpace=wrap;html=1;" parent="1" vertex="1">
          <mxGeometry x="40" y="1320" width="320" height="120" as="geometry" />
        </mxCell>
        <mxCell id="_dYdHnB8K-xbscIP2scY-281" style="edgeStyle=orthogonalEdgeStyle;rounded=0;orthogonalLoop=1;jettySize=auto;html=1;exitX=1;exitY=0.5;exitDx=0;exitDy=0;entryX=0;entryY=0.5;entryDx=0;entryDy=0;" parent="_dYdHnB8K-xbscIP2scY-280" source="_dYdHnB8K-xbscIP2scY-282" target="_dYdHnB8K-xbscIP2scY-283" edge="1">
          <mxGeometry relative="1" as="geometry" />
        </mxCell>
        <mxCell id="_dYdHnB8K-xbscIP2scY-282" value="1 Centrifuged Ore" style="rounded=1;whiteSpace=wrap;html=1;strokeColor=#0000CC;" parent="_dYdHnB8K-xbscIP2scY-280" vertex="1">
          <mxGeometry x="20" y="40" width="120" height="60" as="geometry" />
        </mxCell>
        <mxCell id="_dYdHnB8K-xbscIP2scY-283" value="1 Dust" style="rounded=0;whiteSpace=wrap;html=1;strokeColor=#006666;" parent="_dYdHnB8K-xbscIP2scY-280" vertex="1">
          <mxGeometry x="180" y="40" width="120" height="60" as="geometry" />
        </mxCell>
        <mxCell id="_dYdHnB8K-xbscIP2scY-284" value="Macerator [20 sec]" style="swimlane;whiteSpace=wrap;html=1;" parent="1" vertex="1">
          <mxGeometry x="40" y="1520" width="320" height="220" as="geometry" />
        </mxCell>
        <mxCell id="_dYdHnB8K-xbscIP2scY-285" style="edgeStyle=orthogonalEdgeStyle;rounded=0;orthogonalLoop=1;jettySize=auto;html=1;exitX=1;exitY=0.5;exitDx=0;exitDy=0;entryX=0;entryY=0.5;entryDx=0;entryDy=0;" parent="_dYdHnB8K-xbscIP2scY-284" source="_dYdHnB8K-xbscIP2scY-287" target="_dYdHnB8K-xbscIP2scY-288" edge="1">
          <mxGeometry relative="1" as="geometry" />
        </mxCell>
        <mxCell id="_dYdHnB8K-xbscIP2scY-286" style="edgeStyle=orthogonalEdgeStyle;rounded=0;orthogonalLoop=1;jettySize=auto;html=1;exitX=1;exitY=0.5;exitDx=0;exitDy=0;entryX=0;entryY=0.5;entryDx=0;entryDy=0;" parent="_dYdHnB8K-xbscIP2scY-284" source="_dYdHnB8K-xbscIP2scY-287" target="_dYdHnB8K-xbscIP2scY-289" edge="1">
          <mxGeometry relative="1" as="geometry" />
        </mxCell>
        <mxCell id="_dYdHnB8K-xbscIP2scY-287" value="1 Centrifuged Ore" style="rounded=1;whiteSpace=wrap;html=1;strokeColor=#0000CC;" parent="_dYdHnB8K-xbscIP2scY-284" vertex="1">
          <mxGeometry x="20" y="90" width="120" height="60" as="geometry" />
        </mxCell>
        <mxCell id="_dYdHnB8K-xbscIP2scY-288" value="1 Dust" style="rounded=0;whiteSpace=wrap;html=1;strokeColor=#006666;" parent="_dYdHnB8K-xbscIP2scY-284" vertex="1">
          <mxGeometry x="180" y="40" width="120" height="60" as="geometry" />
        </mxCell>
        <mxCell id="_dYdHnB8K-xbscIP2scY-289" value="[HV]&lt;br&gt;14% By-Product" style="rounded=0;whiteSpace=wrap;html=1;dashed=1;" parent="_dYdHnB8K-xbscIP2scY-284" vertex="1">
          <mxGeometry x="180" y="140" width="120" height="60" as="geometry" />
        </mxCell>
        <mxCell id="_dYdHnB8K-xbscIP2scY-290" value="Smelting [10 sec]" style="swimlane;whiteSpace=wrap;html=1;dashed=1;" parent="1" vertex="1">
          <mxGeometry x="400" y="1040" width="320" height="120" as="geometry" />
        </mxCell>
        <mxCell id="_dYdHnB8K-xbscIP2scY-291" style="edgeStyle=orthogonalEdgeStyle;rounded=0;orthogonalLoop=1;jettySize=auto;html=1;exitX=1;exitY=0.5;exitDx=0;exitDy=0;entryX=0;entryY=0.5;entryDx=0;entryDy=0;" parent="_dYdHnB8K-xbscIP2scY-290" source="_dYdHnB8K-xbscIP2scY-292" target="_dYdHnB8K-xbscIP2scY-293" edge="1">
          <mxGeometry relative="1" as="geometry" />
        </mxCell>
        <mxCell id="_dYdHnB8K-xbscIP2scY-292" value="1 Purified Pile of Dust" style="rounded=1;whiteSpace=wrap;html=1;strokeColor=#99004D;" parent="_dYdHnB8K-xbscIP2scY-290" vertex="1">
          <mxGeometry x="20" y="40" width="120" height="60" as="geometry" />
        </mxCell>
        <mxCell id="_dYdHnB8K-xbscIP2scY-293" value="1 Product" style="rounded=0;whiteSpace=wrap;html=1;glass=1;strokeColor=#331A00;" parent="_dYdHnB8K-xbscIP2scY-290" vertex="1">
          <mxGeometry x="180" y="40" width="120" height="60" as="geometry" />
        </mxCell>
        <mxCell id="_dYdHnB8K-xbscIP2scY-294" value="Centrifuge [5 sec]" style="swimlane;whiteSpace=wrap;html=1;" parent="1" vertex="1">
          <mxGeometry x="40" y="600" width="320" height="220" as="geometry" />
        </mxCell>
        <mxCell id="_dYdHnB8K-xbscIP2scY-295" style="edgeStyle=orthogonalEdgeStyle;rounded=0;orthogonalLoop=1;jettySize=auto;html=1;exitX=1;exitY=0.5;exitDx=0;exitDy=0;entryX=0;entryY=0.5;entryDx=0;entryDy=0;" parent="_dYdHnB8K-xbscIP2scY-294" source="_dYdHnB8K-xbscIP2scY-297" target="_dYdHnB8K-xbscIP2scY-298" edge="1">
          <mxGeometry relative="1" as="geometry" />
        </mxCell>
        <mxCell id="_dYdHnB8K-xbscIP2scY-296" style="edgeStyle=orthogonalEdgeStyle;rounded=0;orthogonalLoop=1;jettySize=auto;html=1;exitX=1;exitY=0.5;exitDx=0;exitDy=0;entryX=0;entryY=0.5;entryDx=0;entryDy=0;" parent="_dYdHnB8K-xbscIP2scY-294" source="_dYdHnB8K-xbscIP2scY-297" target="_dYdHnB8K-xbscIP2scY-299" edge="1">
          <mxGeometry relative="1" as="geometry" />
        </mxCell>
        <mxCell id="_dYdHnB8K-xbscIP2scY-297" value="1 Purified Pile of Dust" style="rounded=1;whiteSpace=wrap;html=1;strokeColor=#99004D;" parent="_dYdHnB8K-xbscIP2scY-294" vertex="1">
          <mxGeometry x="20" y="90" width="120" height="60" as="geometry" />
        </mxCell>
        <mxCell id="_dYdHnB8K-xbscIP2scY-298" value="1 Dust" style="rounded=0;whiteSpace=wrap;html=1;strokeColor=#006666;" parent="_dYdHnB8K-xbscIP2scY-294" vertex="1">
          <mxGeometry x="180" y="40" width="120" height="60" as="geometry" />
        </mxCell>
        <mxCell id="_dYdHnB8K-xbscIP2scY-299" value="11% By-Product" style="rounded=0;whiteSpace=wrap;html=1;dashed=1;" parent="_dYdHnB8K-xbscIP2scY-294" vertex="1">
          <mxGeometry x="180" y="140" width="120" height="60" as="geometry" />
        </mxCell>
        <mxCell id="_dYdHnB8K-xbscIP2scY-300" value="Ore Washing (Circuit 2) [0.4 secs]" style="swimlane;whiteSpace=wrap;html=1;startSize=23;" parent="1" vertex="1">
          <mxGeometry x="40" y="860" width="320" height="220" as="geometry" />
        </mxCell>
        <mxCell id="_dYdHnB8K-xbscIP2scY-301" style="edgeStyle=orthogonalEdgeStyle;rounded=0;orthogonalLoop=1;jettySize=auto;html=1;exitX=1;exitY=0.5;exitDx=0;exitDy=0;entryX=0;entryY=0.5;entryDx=0;entryDy=0;" parent="_dYdHnB8K-xbscIP2scY-300" source="_dYdHnB8K-xbscIP2scY-302" target="_dYdHnB8K-xbscIP2scY-303" edge="1">
          <mxGeometry relative="1" as="geometry" />
        </mxCell>
        <mxCell id="_dYdHnB8K-xbscIP2scY-302" value="1 Purified Pile of Dust" style="rounded=1;whiteSpace=wrap;html=1;strokeColor=#99004D;" parent="_dYdHnB8K-xbscIP2scY-300" vertex="1">
          <mxGeometry x="20" y="40" width="120" height="60" as="geometry" />
        </mxCell>
        <mxCell id="_dYdHnB8K-xbscIP2scY-303" value="1 Dust" style="rounded=0;whiteSpace=wrap;html=1;strokeColor=#006666;" parent="_dYdHnB8K-xbscIP2scY-300" vertex="1">
          <mxGeometry x="180" y="90" width="120" height="60" as="geometry" />
        </mxCell>
        <mxCell id="_dYdHnB8K-xbscIP2scY-304" style="edgeStyle=orthogonalEdgeStyle;rounded=0;orthogonalLoop=1;jettySize=auto;html=1;exitX=1;exitY=0.5;exitDx=0;exitDy=0;entryX=0;entryY=0.5;entryDx=0;entryDy=0;" parent="_dYdHnB8K-xbscIP2scY-300" source="_dYdHnB8K-xbscIP2scY-305" target="_dYdHnB8K-xbscIP2scY-303" edge="1">
          <mxGeometry relative="1" as="geometry" />
        </mxCell>
        <mxCell id="_dYdHnB8K-xbscIP2scY-305" value="100L Water" style="rounded=1;whiteSpace=wrap;html=1;dashed=1;" parent="_dYdHnB8K-xbscIP2scY-300" vertex="1">
          <mxGeometry x="20" y="140" width="120" height="60" as="geometry" />
        </mxCell>
        <mxCell id="_dYdHnB8K-xbscIP2scY-306" value="Smelting [10 sec]" style="swimlane;whiteSpace=wrap;html=1;dashed=1;" parent="1" vertex="1">
          <mxGeometry x="400" y="560" width="320" height="120" as="geometry" />
        </mxCell>
        <mxCell id="_dYdHnB8K-xbscIP2scY-307" style="edgeStyle=orthogonalEdgeStyle;rounded=0;orthogonalLoop=1;jettySize=auto;html=1;exitX=1;exitY=0.5;exitDx=0;exitDy=0;entryX=0;entryY=0.5;entryDx=0;entryDy=0;" parent="_dYdHnB8K-xbscIP2scY-306" source="_dYdHnB8K-xbscIP2scY-308" target="_dYdHnB8K-xbscIP2scY-309" edge="1">
          <mxGeometry relative="1" as="geometry" />
        </mxCell>
        <mxCell id="_dYdHnB8K-xbscIP2scY-308" value="1 Impure Pile of Dust" style="rounded=1;whiteSpace=wrap;html=1;strokeColor=#994C00;" parent="_dYdHnB8K-xbscIP2scY-306" vertex="1">
          <mxGeometry x="20" y="40" width="120" height="60" as="geometry" />
        </mxCell>
        <mxCell id="_dYdHnB8K-xbscIP2scY-309" value="1 Product" style="rounded=0;whiteSpace=wrap;html=1;glass=1;strokeColor=#331A00;" parent="_dYdHnB8K-xbscIP2scY-306" vertex="1">
          <mxGeometry x="180" y="40" width="120" height="60" as="geometry" />
        </mxCell>
        <mxCell id="_dYdHnB8K-xbscIP2scY-310" value="Centrifuge [4.4 sec]" style="swimlane;whiteSpace=wrap;html=1;" parent="1" vertex="1">
          <mxGeometry x="-320" y="-540" width="320" height="220" as="geometry" />
        </mxCell>
        <mxCell id="_dYdHnB8K-xbscIP2scY-311" style="edgeStyle=orthogonalEdgeStyle;rounded=0;orthogonalLoop=1;jettySize=auto;html=1;exitX=1;exitY=0.5;exitDx=0;exitDy=0;entryX=0;entryY=0.5;entryDx=0;entryDy=0;" parent="_dYdHnB8K-xbscIP2scY-310" source="_dYdHnB8K-xbscIP2scY-313" target="_dYdHnB8K-xbscIP2scY-314" edge="1">
          <mxGeometry relative="1" as="geometry" />
        </mxCell>
        <mxCell id="_dYdHnB8K-xbscIP2scY-312" style="edgeStyle=orthogonalEdgeStyle;rounded=0;orthogonalLoop=1;jettySize=auto;html=1;exitX=1;exitY=0.5;exitDx=0;exitDy=0;entryX=0;entryY=0.5;entryDx=0;entryDy=0;" parent="_dYdHnB8K-xbscIP2scY-310" source="_dYdHnB8K-xbscIP2scY-313" target="_dYdHnB8K-xbscIP2scY-315" edge="1">
          <mxGeometry relative="1" as="geometry" />
        </mxCell>
        <mxCell id="_dYdHnB8K-xbscIP2scY-313" value="1 Impure Pile of Dust" style="rounded=1;whiteSpace=wrap;html=1;strokeColor=#994C00;" parent="_dYdHnB8K-xbscIP2scY-310" vertex="1">
          <mxGeometry x="20" y="90" width="120" height="60" as="geometry" />
        </mxCell>
        <mxCell id="_dYdHnB8K-xbscIP2scY-314" value="1 Dust" style="rounded=0;whiteSpace=wrap;html=1;strokeColor=#006666;" parent="_dYdHnB8K-xbscIP2scY-310" vertex="1">
          <mxGeometry x="180" y="40" width="120" height="60" as="geometry" />
        </mxCell>
        <mxCell id="_dYdHnB8K-xbscIP2scY-315" value="11% By-Product" style="rounded=0;whiteSpace=wrap;html=1;dashed=1;" parent="_dYdHnB8K-xbscIP2scY-310" vertex="1">
          <mxGeometry x="180" y="140" width="120" height="60" as="geometry" />
        </mxCell>
        <mxCell id="_dYdHnB8K-xbscIP2scY-316" value="Ore Washing (Circuit 2) [0.4 sec]" style="swimlane;whiteSpace=wrap;html=1;" parent="1" vertex="1">
          <mxGeometry x="-320" y="-280" width="320" height="220" as="geometry" />
        </mxCell>
        <mxCell id="_dYdHnB8K-xbscIP2scY-317" style="edgeStyle=orthogonalEdgeStyle;rounded=0;orthogonalLoop=1;jettySize=auto;html=1;exitX=1;exitY=0.5;exitDx=0;exitDy=0;entryX=0;entryY=0.5;entryDx=0;entryDy=0;" parent="_dYdHnB8K-xbscIP2scY-316" source="_dYdHnB8K-xbscIP2scY-318" target="_dYdHnB8K-xbscIP2scY-319" edge="1">
          <mxGeometry relative="1" as="geometry" />
        </mxCell>
        <mxCell id="_dYdHnB8K-xbscIP2scY-318" value="1 Impure Pile of Dust" style="rounded=1;whiteSpace=wrap;html=1;strokeColor=#994C00;" parent="_dYdHnB8K-xbscIP2scY-316" vertex="1">
          <mxGeometry x="20" y="40" width="120" height="60" as="geometry" />
        </mxCell>
        <mxCell id="_dYdHnB8K-xbscIP2scY-319" value="1 Dust" style="rounded=0;whiteSpace=wrap;html=1;strokeColor=#006666;" parent="_dYdHnB8K-xbscIP2scY-316" vertex="1">
          <mxGeometry x="180" y="90" width="120" height="60" as="geometry" />
        </mxCell>
        <mxCell id="_dYdHnB8K-xbscIP2scY-320" style="edgeStyle=orthogonalEdgeStyle;rounded=0;orthogonalLoop=1;jettySize=auto;html=1;exitX=1;exitY=0.5;exitDx=0;exitDy=0;entryX=0;entryY=0.5;entryDx=0;entryDy=0;" parent="_dYdHnB8K-xbscIP2scY-316" source="_dYdHnB8K-xbscIP2scY-321" target="_dYdHnB8K-xbscIP2scY-319" edge="1">
          <mxGeometry relative="1" as="geometry" />
        </mxCell>
        <mxCell id="_dYdHnB8K-xbscIP2scY-321" value="100L Water" style="rounded=1;whiteSpace=wrap;html=1;dashed=1;" parent="_dYdHnB8K-xbscIP2scY-316" vertex="1">
          <mxGeometry x="20" y="140" width="120" height="60" as="geometry" />
        </mxCell>
        <mxCell id="_dYdHnB8K-xbscIP2scY-322" value="Mixer (HV) [4 sec]" style="swimlane;whiteSpace=wrap;html=1;dashed=1;" parent="1" vertex="1">
          <mxGeometry x="-320" y="-20" width="320" height="220" as="geometry" />
        </mxCell>
        <mxCell id="_dYdHnB8K-xbscIP2scY-323" style="edgeStyle=orthogonalEdgeStyle;rounded=0;orthogonalLoop=1;jettySize=auto;html=1;exitX=1;exitY=0.5;exitDx=0;exitDy=0;entryX=0;entryY=0.5;entryDx=0;entryDy=0;" parent="_dYdHnB8K-xbscIP2scY-322" source="_dYdHnB8K-xbscIP2scY-324" target="_dYdHnB8K-xbscIP2scY-325" edge="1">
          <mxGeometry relative="1" as="geometry" />
        </mxCell>
        <mxCell id="_dYdHnB8K-xbscIP2scY-324" value="8 Impure Pile of Dust" style="rounded=1;whiteSpace=wrap;html=1;strokeColor=#994C00;" parent="_dYdHnB8K-xbscIP2scY-322" vertex="1">
          <mxGeometry x="20" y="40" width="120" height="60" as="geometry" />
        </mxCell>
        <mxCell id="_dYdHnB8K-xbscIP2scY-325" value="2000L Impure Slurry" style="rounded=0;whiteSpace=wrap;html=1;strokeColor=#CCCC00;" parent="_dYdHnB8K-xbscIP2scY-322" vertex="1">
          <mxGeometry x="180" y="90" width="120" height="60" as="geometry" />
        </mxCell>
        <mxCell id="_dYdHnB8K-xbscIP2scY-326" style="edgeStyle=orthogonalEdgeStyle;rounded=0;orthogonalLoop=1;jettySize=auto;html=1;exitX=1;exitY=0.5;exitDx=0;exitDy=0;entryX=0;entryY=0.5;entryDx=0;entryDy=0;" parent="_dYdHnB8K-xbscIP2scY-322" source="_dYdHnB8K-xbscIP2scY-327" target="_dYdHnB8K-xbscIP2scY-325" edge="1">
          <mxGeometry relative="1" as="geometry" />
        </mxCell>
        <mxCell id="_dYdHnB8K-xbscIP2scY-327" value="2000L Distilled Water" style="rounded=1;whiteSpace=wrap;html=1;dashed=1;" parent="_dYdHnB8K-xbscIP2scY-322" vertex="1">
          <mxGeometry x="20" y="140" width="120" height="60" as="geometry" />
        </mxCell>
        <mxCell id="_dYdHnB8K-xbscIP2scY-329" value="Electromagnetic Separator [10 secs]" style="swimlane;whiteSpace=wrap;html=1;dashed=1;" parent="1" vertex="1">
          <mxGeometry x="40" y="240" width="320" height="320" as="geometry" />
        </mxCell>
        <mxCell id="_dYdHnB8K-xbscIP2scY-330" style="edgeStyle=orthogonalEdgeStyle;rounded=0;orthogonalLoop=1;jettySize=auto;html=1;exitX=1;exitY=0.5;exitDx=0;exitDy=0;entryX=0;entryY=0.5;entryDx=0;entryDy=0;" parent="_dYdHnB8K-xbscIP2scY-329" source="_dYdHnB8K-xbscIP2scY-333" target="_dYdHnB8K-xbscIP2scY-334" edge="1">
          <mxGeometry relative="1" as="geometry" />
        </mxCell>
        <mxCell id="_dYdHnB8K-xbscIP2scY-331" style="edgeStyle=orthogonalEdgeStyle;rounded=0;orthogonalLoop=1;jettySize=auto;html=1;exitX=1;exitY=0.5;exitDx=0;exitDy=0;entryX=0;entryY=0.5;entryDx=0;entryDy=0;" parent="_dYdHnB8K-xbscIP2scY-329" source="_dYdHnB8K-xbscIP2scY-333" target="_dYdHnB8K-xbscIP2scY-335" edge="1">
          <mxGeometry relative="1" as="geometry" />
        </mxCell>
        <mxCell id="_dYdHnB8K-xbscIP2scY-332" style="edgeStyle=orthogonalEdgeStyle;rounded=0;orthogonalLoop=1;jettySize=auto;html=1;exitX=1;exitY=0.5;exitDx=0;exitDy=0;entryX=0;entryY=0.5;entryDx=0;entryDy=0;" parent="_dYdHnB8K-xbscIP2scY-329" source="_dYdHnB8K-xbscIP2scY-333" target="_dYdHnB8K-xbscIP2scY-336" edge="1">
          <mxGeometry relative="1" as="geometry" />
        </mxCell>
        <mxCell id="_dYdHnB8K-xbscIP2scY-333" value="1 Purified Pile of Dust" style="rounded=1;whiteSpace=wrap;html=1;strokeColor=#99004D;" parent="_dYdHnB8K-xbscIP2scY-329" vertex="1">
          <mxGeometry x="20" y="140" width="120" height="60" as="geometry" />
        </mxCell>
        <mxCell id="_dYdHnB8K-xbscIP2scY-334" value="1 Dust" style="rounded=0;whiteSpace=wrap;html=1;strokeColor=#006666;" parent="_dYdHnB8K-xbscIP2scY-329" vertex="1">
          <mxGeometry x="180" y="40" width="120" height="60" as="geometry" />
        </mxCell>
        <mxCell id="_dYdHnB8K-xbscIP2scY-335" value="10% By-Product" style="rounded=0;whiteSpace=wrap;html=1;dashed=1;" parent="_dYdHnB8K-xbscIP2scY-329" vertex="1">
          <mxGeometry x="180" y="140" width="120" height="60" as="geometry" />
        </mxCell>
        <mxCell id="_dYdHnB8K-xbscIP2scY-336" value="10% 1-2 By-Product" style="rounded=0;whiteSpace=wrap;html=1;dashed=1;" parent="_dYdHnB8K-xbscIP2scY-329" vertex="1">
          <mxGeometry x="180" y="240" width="120" height="60" as="geometry" />
        </mxCell>
        <mxCell id="_dYdHnB8K-xbscIP2scY-363" value="Froth Flotation (HV) [4 sec]" style="swimlane;whiteSpace=wrap;html=1;" parent="1" vertex="1">
          <mxGeometry x="40" y="-220" width="320" height="420" as="geometry" />
        </mxCell>
        <mxCell id="_dYdHnB8K-xbscIP2scY-364" style="edgeStyle=orthogonalEdgeStyle;rounded=0;orthogonalLoop=1;jettySize=auto;html=1;exitX=1;exitY=0.5;exitDx=0;exitDy=0;" parent="_dYdHnB8K-xbscIP2scY-363" source="_dYdHnB8K-xbscIP2scY-366" target="_dYdHnB8K-xbscIP2scY-367" edge="1">
          <mxGeometry relative="1" as="geometry" />
        </mxCell>
        <mxCell id="_dYdHnB8K-xbscIP2scY-365" style="edgeStyle=orthogonalEdgeStyle;rounded=0;orthogonalLoop=1;jettySize=auto;html=1;exitX=1;exitY=0.5;exitDx=0;exitDy=0;entryX=0;entryY=0.5;entryDx=0;entryDy=0;" parent="_dYdHnB8K-xbscIP2scY-363" source="_dYdHnB8K-xbscIP2scY-366" target="_dYdHnB8K-xbscIP2scY-368" edge="1">
          <mxGeometry relative="1" as="geometry" />
        </mxCell>
        <mxCell id="_dYdHnB8K-xbscIP2scY-366" value="2000L Impure Slurry" style="rounded=1;whiteSpace=wrap;html=1;strokeColor=#CCCC00;" parent="_dYdHnB8K-xbscIP2scY-363" vertex="1">
          <mxGeometry x="20" y="40" width="120" height="60" as="geometry" />
        </mxCell>
        <mxCell id="_dYdHnB8K-xbscIP2scY-367" value="1000L Slurry" style="rounded=0;whiteSpace=wrap;html=1;strokeColor=#CCCC00;" parent="_dYdHnB8K-xbscIP2scY-363" vertex="1">
          <mxGeometry x="180" y="90" width="120" height="60" as="geometry" />
        </mxCell>
        <mxCell id="_dYdHnB8K-xbscIP2scY-368" value="1000L Trailing Slurry" style="rounded=0;whiteSpace=wrap;html=1;dashed=1;" parent="_dYdHnB8K-xbscIP2scY-363" vertex="1">
          <mxGeometry x="180" y="290" width="120" height="60" as="geometry" />
        </mxCell>
        <mxCell id="_dYdHnB8K-xbscIP2scY-369" style="edgeStyle=orthogonalEdgeStyle;rounded=0;orthogonalLoop=1;jettySize=auto;html=1;exitX=1;exitY=0.5;exitDx=0;exitDy=0;entryX=0;entryY=0.5;entryDx=0;entryDy=0;" parent="_dYdHnB8K-xbscIP2scY-363" source="_dYdHnB8K-xbscIP2scY-371" target="_dYdHnB8K-xbscIP2scY-368" edge="1">
          <mxGeometry relative="1" as="geometry" />
        </mxCell>
        <mxCell id="_dYdHnB8K-xbscIP2scY-370" style="edgeStyle=orthogonalEdgeStyle;rounded=0;orthogonalLoop=1;jettySize=auto;html=1;exitX=1;exitY=0.5;exitDx=0;exitDy=0;entryX=0;entryY=0.5;entryDx=0;entryDy=0;" parent="_dYdHnB8K-xbscIP2scY-363" source="_dYdHnB8K-xbscIP2scY-371" target="_dYdHnB8K-xbscIP2scY-367" edge="1">
          <mxGeometry relative="1" as="geometry" />
        </mxCell>
        <mxCell id="_dYdHnB8K-xbscIP2scY-371" value="0-100L Chemicals" style="rounded=1;whiteSpace=wrap;html=1;dashed=1;" parent="_dYdHnB8K-xbscIP2scY-363" vertex="1">
          <mxGeometry x="20" y="140" width="120" height="60" as="geometry" />
        </mxCell>
        <mxCell id="_dYdHnB8K-xbscIP2scY-372" style="edgeStyle=orthogonalEdgeStyle;rounded=0;orthogonalLoop=1;jettySize=auto;html=1;exitX=1;exitY=0.5;exitDx=0;exitDy=0;" parent="_dYdHnB8K-xbscIP2scY-363" source="_dYdHnB8K-xbscIP2scY-374" target="_dYdHnB8K-xbscIP2scY-368" edge="1">
          <mxGeometry relative="1" as="geometry" />
        </mxCell>
        <mxCell id="_dYdHnB8K-xbscIP2scY-373" style="edgeStyle=orthogonalEdgeStyle;rounded=0;orthogonalLoop=1;jettySize=auto;html=1;exitX=1;exitY=0.5;exitDx=0;exitDy=0;entryX=0;entryY=0.5;entryDx=0;entryDy=0;" parent="_dYdHnB8K-xbscIP2scY-363" source="_dYdHnB8K-xbscIP2scY-374" target="_dYdHnB8K-xbscIP2scY-367" edge="1">
          <mxGeometry relative="1" as="geometry" />
        </mxCell>
        <mxCell id="_dYdHnB8K-xbscIP2scY-374" value="0-1 Catalyst" style="rounded=1;whiteSpace=wrap;html=1;dashed=1;" parent="_dYdHnB8K-xbscIP2scY-363" vertex="1">
          <mxGeometry x="20" y="240" width="120" height="60" as="geometry" />
        </mxCell>
        <mxCell id="_dYdHnB8K-xbscIP2scY-375" style="edgeStyle=orthogonalEdgeStyle;rounded=0;orthogonalLoop=1;jettySize=auto;html=1;exitX=1;exitY=0.5;exitDx=0;exitDy=0;" parent="_dYdHnB8K-xbscIP2scY-363" source="_dYdHnB8K-xbscIP2scY-377" target="_dYdHnB8K-xbscIP2scY-368" edge="1">
          <mxGeometry relative="1" as="geometry" />
        </mxCell>
        <mxCell id="_dYdHnB8K-xbscIP2scY-376" style="edgeStyle=orthogonalEdgeStyle;rounded=0;orthogonalLoop=1;jettySize=auto;html=1;exitX=1;exitY=0.5;exitDx=0;exitDy=0;entryX=0;entryY=0.5;entryDx=0;entryDy=0;" parent="_dYdHnB8K-xbscIP2scY-363" source="_dYdHnB8K-xbscIP2scY-377" target="_dYdHnB8K-xbscIP2scY-367" edge="1">
          <mxGeometry relative="1" as="geometry" />
        </mxCell>
        <mxCell id="_dYdHnB8K-xbscIP2scY-377" value="0-1 Catalyst" style="rounded=1;whiteSpace=wrap;html=1;dashed=1;" parent="_dYdHnB8K-xbscIP2scY-363" vertex="1">
          <mxGeometry x="20" y="340" width="120" height="60" as="geometry" />
        </mxCell>
        <mxCell id="_dYdHnB8K-xbscIP2scY-378" value="Clarifier [1 sec]" style="swimlane;whiteSpace=wrap;html=1;" parent="1" vertex="1">
          <mxGeometry x="400" y="-20" width="320" height="220" as="geometry" />
        </mxCell>
        <mxCell id="_dYdHnB8K-xbscIP2scY-379" style="edgeStyle=orthogonalEdgeStyle;rounded=0;orthogonalLoop=1;jettySize=auto;html=1;exitX=1;exitY=0.5;exitDx=0;exitDy=0;entryX=0;entryY=0.5;entryDx=0;entryDy=0;" parent="_dYdHnB8K-xbscIP2scY-378" source="_dYdHnB8K-xbscIP2scY-381" target="_dYdHnB8K-xbscIP2scY-382" edge="1">
          <mxGeometry relative="1" as="geometry" />
        </mxCell>
        <mxCell id="_dYdHnB8K-xbscIP2scY-380" style="edgeStyle=orthogonalEdgeStyle;rounded=0;orthogonalLoop=1;jettySize=auto;html=1;exitX=1;exitY=0.5;exitDx=0;exitDy=0;entryX=0;entryY=0.5;entryDx=0;entryDy=0;" parent="_dYdHnB8K-xbscIP2scY-378" source="_dYdHnB8K-xbscIP2scY-381" target="_dYdHnB8K-xbscIP2scY-383" edge="1">
          <mxGeometry relative="1" as="geometry" />
        </mxCell>
        <mxCell id="_dYdHnB8K-xbscIP2scY-381" value="1000L Slurry" style="rounded=1;whiteSpace=wrap;html=1;strokeColor=#CCCC00;" parent="_dYdHnB8K-xbscIP2scY-378" vertex="1">
          <mxGeometry x="20" y="90" width="120" height="60" as="geometry" />
        </mxCell>
        <mxCell id="_dYdHnB8K-xbscIP2scY-382" value="16 Dust" style="rounded=0;whiteSpace=wrap;html=1;strokeColor=#006666;" parent="_dYdHnB8K-xbscIP2scY-378" vertex="1">
          <mxGeometry x="180" y="40" width="120" height="60" as="geometry" />
        </mxCell>
        <mxCell id="_dYdHnB8K-xbscIP2scY-383" value="1000L Wastewater" style="rounded=0;whiteSpace=wrap;html=1;dashed=1;" parent="_dYdHnB8K-xbscIP2scY-378" vertex="1">
          <mxGeometry x="180" y="140" width="120" height="60" as="geometry" />
        </mxCell>
        <mxCell id="_dYdHnB8K-xbscIP2scY-387" style="edgeStyle=orthogonalEdgeStyle;rounded=0;orthogonalLoop=1;jettySize=auto;html=1;exitX=1;exitY=0.5;exitDx=0;exitDy=0;entryX=0;entryY=0.5;entryDx=0;entryDy=0;strokeColor=#FF3333;" parent="1" source="_dYdHnB8K-xbscIP2scY-385" target="_dYdHnB8K-xbscIP2scY-163" edge="1">
          <mxGeometry relative="1" as="geometry" />
        </mxCell>
        <mxCell id="_dYdHnB8K-xbscIP2scY-476" style="edgeStyle=orthogonalEdgeStyle;rounded=0;orthogonalLoop=1;jettySize=auto;html=1;exitX=1;exitY=0.5;exitDx=0;exitDy=0;entryX=0;entryY=0.5;entryDx=0;entryDy=0;strokeColor=#FF3333;" parent="1" source="_dYdHnB8K-xbscIP2scY-385" target="_dYdHnB8K-xbscIP2scY-158" edge="1">
          <mxGeometry relative="1" as="geometry">
            <Array as="points">
              <mxPoint x="-1060" y="600" />
              <mxPoint x="-1060" y="220" />
              <mxPoint x="390" y="220" />
              <mxPoint x="390" y="310" />
            </Array>
          </mxGeometry>
        </mxCell>
        <mxCell id="_dYdHnB8K-xbscIP2scY-385" value="Ore" style="whiteSpace=wrap;html=1;aspect=fixed;dashed=1;strokeColor=#FF3333;" parent="1" vertex="1">
          <mxGeometry x="-1160" y="560" width="80" height="80" as="geometry" />
        </mxCell>
        <mxCell id="_dYdHnB8K-xbscIP2scY-176" value="Ore Washing (Circuit 2) [0.4 sec]" style="swimlane;whiteSpace=wrap;html=1;" parent="1" vertex="1">
          <mxGeometry x="-680" y="-20" width="320" height="220" as="geometry" />
        </mxCell>
        <mxCell id="_dYdHnB8K-xbscIP2scY-177" style="edgeStyle=orthogonalEdgeStyle;rounded=0;orthogonalLoop=1;jettySize=auto;html=1;exitX=1;exitY=0.5;exitDx=0;exitDy=0;entryX=0;entryY=0.5;entryDx=0;entryDy=0;" parent="_dYdHnB8K-xbscIP2scY-176" source="_dYdHnB8K-xbscIP2scY-178" target="_dYdHnB8K-xbscIP2scY-179" edge="1">
          <mxGeometry relative="1" as="geometry" />
        </mxCell>
        <mxCell id="_dYdHnB8K-xbscIP2scY-178" value="1 Crushed Ore" style="rounded=1;whiteSpace=wrap;html=1;strokeColor=#0066CC;" parent="_dYdHnB8K-xbscIP2scY-176" vertex="1">
          <mxGeometry x="20" y="40" width="120" height="60" as="geometry" />
        </mxCell>
        <mxCell id="_dYdHnB8K-xbscIP2scY-179" value="1 Purified Ore" style="rounded=0;whiteSpace=wrap;html=1;strokeColor=#00CC00;" parent="_dYdHnB8K-xbscIP2scY-176" vertex="1">
          <mxGeometry x="180" y="90" width="120" height="60" as="geometry" />
        </mxCell>
        <mxCell id="_dYdHnB8K-xbscIP2scY-180" style="edgeStyle=orthogonalEdgeStyle;rounded=0;orthogonalLoop=1;jettySize=auto;html=1;exitX=1;exitY=0.5;exitDx=0;exitDy=0;entryX=0;entryY=0.5;entryDx=0;entryDy=0;" parent="_dYdHnB8K-xbscIP2scY-176" source="_dYdHnB8K-xbscIP2scY-181" target="_dYdHnB8K-xbscIP2scY-179" edge="1">
          <mxGeometry relative="1" as="geometry" />
        </mxCell>
        <mxCell id="_dYdHnB8K-xbscIP2scY-181" value="100L Water" style="rounded=1;whiteSpace=wrap;html=1;dashed=1;" parent="_dYdHnB8K-xbscIP2scY-176" vertex="1">
          <mxGeometry x="20" y="140" width="120" height="60" as="geometry" />
        </mxCell>
        <mxCell id="_dYdHnB8K-xbscIP2scY-240" value="Hammer [0.5 sec]" style="swimlane;whiteSpace=wrap;html=1;" parent="1" vertex="1">
          <mxGeometry x="-320" y="440" width="320" height="120" as="geometry" />
        </mxCell>
        <mxCell id="_dYdHnB8K-xbscIP2scY-241" style="edgeStyle=orthogonalEdgeStyle;rounded=0;orthogonalLoop=1;jettySize=auto;html=1;exitX=1;exitY=0.5;exitDx=0;exitDy=0;entryX=0;entryY=0.5;entryDx=0;entryDy=0;" parent="_dYdHnB8K-xbscIP2scY-240" source="_dYdHnB8K-xbscIP2scY-242" target="_dYdHnB8K-xbscIP2scY-243" edge="1">
          <mxGeometry relative="1" as="geometry" />
        </mxCell>
        <mxCell id="_dYdHnB8K-xbscIP2scY-242" value="1 Purified Ore" style="rounded=1;whiteSpace=wrap;html=1;strokeColor=#00CC00;" parent="_dYdHnB8K-xbscIP2scY-240" vertex="1">
          <mxGeometry x="20" y="40" width="120" height="60" as="geometry" />
        </mxCell>
        <mxCell id="_dYdHnB8K-xbscIP2scY-243" value="1 Purified Pile of Dust" style="rounded=0;whiteSpace=wrap;html=1;strokeColor=#99004D;" parent="_dYdHnB8K-xbscIP2scY-240" vertex="1">
          <mxGeometry x="180" y="40" width="120" height="60" as="geometry" />
        </mxCell>
        <mxCell id="_dYdHnB8K-xbscIP2scY-338" value="Smelting [10 sec]" style="swimlane;whiteSpace=wrap;html=1;dashed=1;" parent="1" vertex="1">
          <mxGeometry x="400" y="720" width="320" height="120" as="geometry" />
        </mxCell>
        <mxCell id="_dYdHnB8K-xbscIP2scY-339" style="edgeStyle=orthogonalEdgeStyle;rounded=0;orthogonalLoop=1;jettySize=auto;html=1;exitX=1;exitY=0.5;exitDx=0;exitDy=0;entryX=0;entryY=0.5;entryDx=0;entryDy=0;" parent="_dYdHnB8K-xbscIP2scY-338" source="_dYdHnB8K-xbscIP2scY-340" target="_dYdHnB8K-xbscIP2scY-341" edge="1">
          <mxGeometry relative="1" as="geometry" />
        </mxCell>
        <mxCell id="_dYdHnB8K-xbscIP2scY-340" value="1 Dust" style="rounded=1;whiteSpace=wrap;html=1;strokeColor=#006666;" parent="_dYdHnB8K-xbscIP2scY-338" vertex="1">
          <mxGeometry x="20" y="40" width="120" height="60" as="geometry" />
        </mxCell>
        <mxCell id="_dYdHnB8K-xbscIP2scY-341" value="1 Product" style="rounded=0;whiteSpace=wrap;html=1;glass=1;strokeColor=#331A00;" parent="_dYdHnB8K-xbscIP2scY-338" vertex="1">
          <mxGeometry x="180" y="40" width="120" height="60" as="geometry" />
        </mxCell>
        <mxCell id="_dYdHnB8K-xbscIP2scY-465" style="edgeStyle=orthogonalEdgeStyle;rounded=0;orthogonalLoop=1;jettySize=auto;html=1;exitX=1;exitY=0.5;exitDx=0;exitDy=0;entryX=0;entryY=0.5;entryDx=0;entryDy=0;strokeColor=#0066CC;" parent="1" source="_dYdHnB8K-xbscIP2scY-164" target="_dYdHnB8K-xbscIP2scY-173" edge="1">
          <mxGeometry relative="1" as="geometry" />
        </mxCell>
        <mxCell id="_dYdHnB8K-xbscIP2scY-466" style="edgeStyle=orthogonalEdgeStyle;rounded=0;orthogonalLoop=1;jettySize=auto;html=1;exitX=1;exitY=0.5;exitDx=0;exitDy=0;entryX=0;entryY=0.5;entryDx=0;entryDy=0;strokeColor=#0066CC;" parent="1" source="_dYdHnB8K-xbscIP2scY-164" target="_dYdHnB8K-xbscIP2scY-168" edge="1">
          <mxGeometry relative="1" as="geometry" />
        </mxCell>
        <mxCell id="_dYdHnB8K-xbscIP2scY-467" style="edgeStyle=orthogonalEdgeStyle;rounded=0;orthogonalLoop=1;jettySize=auto;html=1;exitX=1;exitY=0.5;exitDx=0;exitDy=0;entryX=0;entryY=0.5;entryDx=0;entryDy=0;strokeColor=#0066CC;" parent="1" source="_dYdHnB8K-xbscIP2scY-164" target="_dYdHnB8K-xbscIP2scY-178" edge="1">
          <mxGeometry relative="1" as="geometry" />
        </mxCell>
        <mxCell id="_dYdHnB8K-xbscIP2scY-468" style="edgeStyle=orthogonalEdgeStyle;rounded=0;orthogonalLoop=1;jettySize=auto;html=1;exitX=1;exitY=0.5;exitDx=0;exitDy=0;entryX=0;entryY=0.5;entryDx=0;entryDy=0;strokeColor=#0066CC;" parent="1" source="_dYdHnB8K-xbscIP2scY-164" target="_dYdHnB8K-xbscIP2scY-186" edge="1">
          <mxGeometry relative="1" as="geometry" />
        </mxCell>
        <mxCell id="_dYdHnB8K-xbscIP2scY-469" style="edgeStyle=orthogonalEdgeStyle;rounded=0;orthogonalLoop=1;jettySize=auto;html=1;exitX=1;exitY=0.5;exitDx=0;exitDy=0;entryX=0;entryY=0.5;entryDx=0;entryDy=0;strokeColor=#0066CC;" parent="1" source="_dYdHnB8K-xbscIP2scY-164" target="_dYdHnB8K-xbscIP2scY-198" edge="1">
          <mxGeometry relative="1" as="geometry" />
        </mxCell>
        <mxCell id="_dYdHnB8K-xbscIP2scY-470" style="edgeStyle=orthogonalEdgeStyle;rounded=0;orthogonalLoop=1;jettySize=auto;html=1;exitX=1;exitY=0.5;exitDx=0;exitDy=0;entryX=0;entryY=0.5;entryDx=0;entryDy=0;strokeColor=#0066CC;" parent="1" source="_dYdHnB8K-xbscIP2scY-164" target="_dYdHnB8K-xbscIP2scY-220" edge="1">
          <mxGeometry relative="1" as="geometry" />
        </mxCell>
        <mxCell id="_dYdHnB8K-xbscIP2scY-471" value="Smelting [10 sec]" style="swimlane;whiteSpace=wrap;html=1;" parent="1" vertex="1">
          <mxGeometry x="400" y="400" width="320" height="120" as="geometry" />
        </mxCell>
        <mxCell id="_dYdHnB8K-xbscIP2scY-472" style="edgeStyle=orthogonalEdgeStyle;rounded=0;orthogonalLoop=1;jettySize=auto;html=1;exitX=1;exitY=0.5;exitDx=0;exitDy=0;entryX=0;entryY=0.5;entryDx=0;entryDy=0;" parent="_dYdHnB8K-xbscIP2scY-471" source="_dYdHnB8K-xbscIP2scY-473" target="_dYdHnB8K-xbscIP2scY-474" edge="1">
          <mxGeometry relative="1" as="geometry" />
        </mxCell>
        <mxCell id="_dYdHnB8K-xbscIP2scY-473" value="1 Crushed Ore" style="rounded=1;whiteSpace=wrap;html=1;dashed=1;strokeColor=#0066CC;" parent="_dYdHnB8K-xbscIP2scY-471" vertex="1">
          <mxGeometry x="20" y="40" width="120" height="60" as="geometry" />
        </mxCell>
        <mxCell id="_dYdHnB8K-xbscIP2scY-474" value="1 Product" style="rounded=0;whiteSpace=wrap;html=1;glass=1;strokeColor=#331A00;" parent="_dYdHnB8K-xbscIP2scY-471" vertex="1">
          <mxGeometry x="180" y="40" width="120" height="60" as="geometry" />
        </mxCell>
        <mxCell id="_dYdHnB8K-xbscIP2scY-475" style="edgeStyle=orthogonalEdgeStyle;rounded=0;orthogonalLoop=1;jettySize=auto;html=1;exitX=1;exitY=0.5;exitDx=0;exitDy=0;entryX=0;entryY=0.5;entryDx=0;entryDy=0;strokeColor=#0066CC;" parent="1" source="_dYdHnB8K-xbscIP2scY-164" target="_dYdHnB8K-xbscIP2scY-473" edge="1">
          <mxGeometry relative="1" as="geometry">
            <Array as="points">
              <mxPoint x="-700" y="550" />
              <mxPoint x="-700" y="580" />
              <mxPoint x="370" y="580" />
              <mxPoint x="370" y="470" />
            </Array>
          </mxGeometry>
        </mxCell>
        <mxCell id="_dYdHnB8K-xbscIP2scY-477" style="edgeStyle=orthogonalEdgeStyle;rounded=0;orthogonalLoop=1;jettySize=auto;html=1;exitX=1;exitY=0.5;exitDx=0;exitDy=0;entryX=0;entryY=0.5;entryDx=0;entryDy=0;" parent="1" source="_dYdHnB8K-xbscIP2scY-221" target="_dYdHnB8K-xbscIP2scY-265" edge="1">
          <mxGeometry relative="1" as="geometry" />
        </mxCell>
        <mxCell id="_dYdHnB8K-xbscIP2scY-478" style="edgeStyle=orthogonalEdgeStyle;rounded=0;orthogonalLoop=1;jettySize=auto;html=1;exitX=1;exitY=0.5;exitDx=0;exitDy=0;entryX=0;entryY=0.5;entryDx=0;entryDy=0;strokeColor=#0066CC;" parent="1" source="_dYdHnB8K-xbscIP2scY-164" target="_dYdHnB8K-xbscIP2scY-232" edge="1">
          <mxGeometry relative="1" as="geometry">
            <Array as="points">
              <mxPoint x="-700" y="550" />
              <mxPoint x="-700" y="1740" />
            </Array>
          </mxGeometry>
        </mxCell>
        <mxCell id="_dYdHnB8K-xbscIP2scY-479" style="edgeStyle=orthogonalEdgeStyle;rounded=0;orthogonalLoop=1;jettySize=auto;html=1;exitX=1;exitY=0.5;exitDx=0;exitDy=0;entryX=0;entryY=0.5;entryDx=0;entryDy=0;" parent="1" source="_dYdHnB8K-xbscIP2scY-221" target="_dYdHnB8K-xbscIP2scY-273" edge="1">
          <mxGeometry relative="1" as="geometry" />
        </mxCell>
        <mxCell id="_dYdHnB8K-xbscIP2scY-480" style="edgeStyle=orthogonalEdgeStyle;rounded=0;orthogonalLoop=1;jettySize=auto;html=1;exitX=1;exitY=0.5;exitDx=0;exitDy=0;entryX=0;entryY=0.5;entryDx=0;entryDy=0;" parent="1" source="_dYdHnB8K-xbscIP2scY-221" target="_dYdHnB8K-xbscIP2scY-247" edge="1">
          <mxGeometry relative="1" as="geometry" />
        </mxCell>
        <mxCell id="_dYdHnB8K-xbscIP2scY-481" style="edgeStyle=orthogonalEdgeStyle;rounded=0;orthogonalLoop=1;jettySize=auto;html=1;exitX=1;exitY=0.5;exitDx=0;exitDy=0;entryX=0;entryY=0.5;entryDx=0;entryDy=0;" parent="1" source="_dYdHnB8K-xbscIP2scY-221" target="_dYdHnB8K-xbscIP2scY-242" edge="1">
          <mxGeometry relative="1" as="geometry" />
        </mxCell>
        <mxCell id="_dYdHnB8K-xbscIP2scY-482" style="edgeStyle=orthogonalEdgeStyle;rounded=0;orthogonalLoop=1;jettySize=auto;html=1;exitX=1;exitY=0.5;exitDx=0;exitDy=0;" parent="1" source="_dYdHnB8K-xbscIP2scY-199" target="_dYdHnB8K-xbscIP2scY-247" edge="1">
          <mxGeometry relative="1" as="geometry" />
        </mxCell>
        <mxCell id="_dYdHnB8K-xbscIP2scY-483" style="edgeStyle=orthogonalEdgeStyle;rounded=0;orthogonalLoop=1;jettySize=auto;html=1;exitX=1;exitY=0.5;exitDx=0;exitDy=0;entryX=0;entryY=0.5;entryDx=0;entryDy=0;" parent="1" source="_dYdHnB8K-xbscIP2scY-199" target="_dYdHnB8K-xbscIP2scY-242" edge="1">
          <mxGeometry relative="1" as="geometry" />
        </mxCell>
        <mxCell id="_dYdHnB8K-xbscIP2scY-484" style="edgeStyle=orthogonalEdgeStyle;rounded=0;orthogonalLoop=1;jettySize=auto;html=1;exitX=1;exitY=0.5;exitDx=0;exitDy=0;entryX=0;entryY=0.5;entryDx=0;entryDy=0;" parent="1" source="_dYdHnB8K-xbscIP2scY-199" target="_dYdHnB8K-xbscIP2scY-265" edge="1">
          <mxGeometry relative="1" as="geometry" />
        </mxCell>
        <mxCell id="_dYdHnB8K-xbscIP2scY-485" style="edgeStyle=orthogonalEdgeStyle;rounded=0;orthogonalLoop=1;jettySize=auto;html=1;exitX=1;exitY=0.5;exitDx=0;exitDy=0;entryX=0;entryY=0.5;entryDx=0;entryDy=0;strokeColor=#00CC00;" parent="1" source="_dYdHnB8K-xbscIP2scY-199" target="_dYdHnB8K-xbscIP2scY-273" edge="1">
          <mxGeometry relative="1" as="geometry" />
        </mxCell>
        <mxCell id="_dYdHnB8K-xbscIP2scY-487" style="edgeStyle=orthogonalEdgeStyle;rounded=0;orthogonalLoop=1;jettySize=auto;html=1;exitX=1;exitY=0.5;exitDx=0;exitDy=0;entryX=0;entryY=0.5;entryDx=0;entryDy=0;" parent="1" source="_dYdHnB8K-xbscIP2scY-187" target="_dYdHnB8K-xbscIP2scY-273" edge="1">
          <mxGeometry relative="1" as="geometry" />
        </mxCell>
        <mxCell id="_dYdHnB8K-xbscIP2scY-488" style="edgeStyle=orthogonalEdgeStyle;rounded=0;orthogonalLoop=1;jettySize=auto;html=1;exitX=1;exitY=0.5;exitDx=0;exitDy=0;entryX=0;entryY=0.5;entryDx=0;entryDy=0;strokeColor=#00CC00;" parent="1" source="_dYdHnB8K-xbscIP2scY-179" target="_dYdHnB8K-xbscIP2scY-273" edge="1">
          <mxGeometry relative="1" as="geometry" />
        </mxCell>
        <mxCell id="_dYdHnB8K-xbscIP2scY-489" style="edgeStyle=orthogonalEdgeStyle;rounded=0;orthogonalLoop=1;jettySize=auto;html=1;exitX=1;exitY=0.5;exitDx=0;exitDy=0;entryX=0;entryY=0.5;entryDx=0;entryDy=0;" parent="1" source="_dYdHnB8K-xbscIP2scY-187" target="_dYdHnB8K-xbscIP2scY-265" edge="1">
          <mxGeometry relative="1" as="geometry" />
        </mxCell>
        <mxCell id="_dYdHnB8K-xbscIP2scY-490" style="edgeStyle=orthogonalEdgeStyle;rounded=0;orthogonalLoop=1;jettySize=auto;html=1;exitX=1;exitY=0.5;exitDx=0;exitDy=0;entryX=0;entryY=0.5;entryDx=0;entryDy=0;" parent="1" source="_dYdHnB8K-xbscIP2scY-187" target="_dYdHnB8K-xbscIP2scY-247" edge="1">
          <mxGeometry relative="1" as="geometry" />
        </mxCell>
        <mxCell id="_dYdHnB8K-xbscIP2scY-491" style="edgeStyle=orthogonalEdgeStyle;rounded=0;orthogonalLoop=1;jettySize=auto;html=1;exitX=1;exitY=0.5;exitDx=0;exitDy=0;entryX=0;entryY=0.5;entryDx=0;entryDy=0;strokeColor=#00CC00;" parent="1" source="_dYdHnB8K-xbscIP2scY-187" target="_dYdHnB8K-xbscIP2scY-242" edge="1">
          <mxGeometry relative="1" as="geometry" />
        </mxCell>
        <mxCell id="_dYdHnB8K-xbscIP2scY-492" style="edgeStyle=orthogonalEdgeStyle;rounded=0;orthogonalLoop=1;jettySize=auto;html=1;exitX=1;exitY=0.5;exitDx=0;exitDy=0;entryX=0;entryY=0.5;entryDx=0;entryDy=0;strokeColor=#00CC00;" parent="1" source="_dYdHnB8K-xbscIP2scY-179" target="_dYdHnB8K-xbscIP2scY-242" edge="1">
          <mxGeometry relative="1" as="geometry" />
        </mxCell>
        <mxCell id="_dYdHnB8K-xbscIP2scY-493" style="edgeStyle=orthogonalEdgeStyle;rounded=0;orthogonalLoop=1;jettySize=auto;html=1;exitX=1;exitY=0.5;exitDx=0;exitDy=0;entryX=0;entryY=0.5;entryDx=0;entryDy=0;strokeColor=#00CC00;" parent="1" source="_dYdHnB8K-xbscIP2scY-179" target="_dYdHnB8K-xbscIP2scY-247" edge="1">
          <mxGeometry relative="1" as="geometry" />
        </mxCell>
        <mxCell id="_dYdHnB8K-xbscIP2scY-494" style="edgeStyle=orthogonalEdgeStyle;rounded=0;orthogonalLoop=1;jettySize=auto;html=1;exitX=1;exitY=0.5;exitDx=0;exitDy=0;entryX=0;entryY=0.5;entryDx=0;entryDy=0;strokeColor=#00CC00;" parent="1" source="_dYdHnB8K-xbscIP2scY-179" target="_dYdHnB8K-xbscIP2scY-265" edge="1">
          <mxGeometry relative="1" as="geometry" />
        </mxCell>
        <mxCell id="_dYdHnB8K-xbscIP2scY-495" style="edgeStyle=orthogonalEdgeStyle;rounded=0;orthogonalLoop=1;jettySize=auto;html=1;exitX=1;exitY=0.5;exitDx=0;exitDy=0;" parent="1" source="_dYdHnB8K-xbscIP2scY-174" target="_dYdHnB8K-xbscIP2scY-313" edge="1">
          <mxGeometry relative="1" as="geometry" />
        </mxCell>
        <mxCell id="_dYdHnB8K-xbscIP2scY-496" style="edgeStyle=orthogonalEdgeStyle;rounded=0;orthogonalLoop=1;jettySize=auto;html=1;exitX=1;exitY=0.5;exitDx=0;exitDy=0;entryX=0;entryY=0.5;entryDx=0;entryDy=0;" parent="1" source="_dYdHnB8K-xbscIP2scY-174" target="_dYdHnB8K-xbscIP2scY-318" edge="1">
          <mxGeometry relative="1" as="geometry" />
        </mxCell>
        <mxCell id="_dYdHnB8K-xbscIP2scY-497" style="edgeStyle=orthogonalEdgeStyle;rounded=0;orthogonalLoop=1;jettySize=auto;html=1;exitX=1;exitY=0.5;exitDx=0;exitDy=0;entryX=0;entryY=0.5;entryDx=0;entryDy=0;strokeColor=#994C00;" parent="1" source="_dYdHnB8K-xbscIP2scY-174" target="_dYdHnB8K-xbscIP2scY-324" edge="1">
          <mxGeometry relative="1" as="geometry" />
        </mxCell>
        <mxCell id="_dYdHnB8K-xbscIP2scY-498" style="edgeStyle=orthogonalEdgeStyle;rounded=0;orthogonalLoop=1;jettySize=auto;html=1;exitX=1;exitY=0.5;exitDx=0;exitDy=0;entryX=0;entryY=0.5;entryDx=0;entryDy=0;strokeColor=#994C00;" parent="1" source="_dYdHnB8K-xbscIP2scY-169" target="_dYdHnB8K-xbscIP2scY-313" edge="1">
          <mxGeometry relative="1" as="geometry" />
        </mxCell>
        <mxCell id="_dYdHnB8K-xbscIP2scY-499" style="edgeStyle=orthogonalEdgeStyle;rounded=0;orthogonalLoop=1;jettySize=auto;html=1;exitX=1;exitY=0.5;exitDx=0;exitDy=0;entryX=0;entryY=0.5;entryDx=0;entryDy=0;strokeColor=#994C00;" parent="1" source="_dYdHnB8K-xbscIP2scY-169" target="_dYdHnB8K-xbscIP2scY-318" edge="1">
          <mxGeometry relative="1" as="geometry" />
        </mxCell>
        <mxCell id="_dYdHnB8K-xbscIP2scY-500" style="edgeStyle=orthogonalEdgeStyle;rounded=0;orthogonalLoop=1;jettySize=auto;html=1;exitX=1;exitY=0.5;exitDx=0;exitDy=0;entryX=0;entryY=0.5;entryDx=0;entryDy=0;strokeColor=#994C00;" parent="1" source="_dYdHnB8K-xbscIP2scY-169" target="_dYdHnB8K-xbscIP2scY-324" edge="1">
          <mxGeometry relative="1" as="geometry" />
        </mxCell>
        <mxCell id="_dYdHnB8K-xbscIP2scY-501" style="edgeStyle=orthogonalEdgeStyle;rounded=0;orthogonalLoop=1;jettySize=auto;html=1;exitX=1;exitY=0.5;exitDx=0;exitDy=0;entryX=0;entryY=0.5;entryDx=0;entryDy=0;strokeColor=#CCCC00;" parent="1" source="_dYdHnB8K-xbscIP2scY-325" target="_dYdHnB8K-xbscIP2scY-366" edge="1">
          <mxGeometry relative="1" as="geometry" />
        </mxCell>
        <mxCell id="_dYdHnB8K-xbscIP2scY-502" style="edgeStyle=orthogonalEdgeStyle;rounded=0;orthogonalLoop=1;jettySize=auto;html=1;exitX=1;exitY=0.5;exitDx=0;exitDy=0;entryX=0;entryY=0.5;entryDx=0;entryDy=0;strokeColor=#CCCC00;" parent="1" source="_dYdHnB8K-xbscIP2scY-367" target="_dYdHnB8K-xbscIP2scY-381" edge="1">
          <mxGeometry relative="1" as="geometry" />
        </mxCell>
        <mxCell id="_dYdHnB8K-xbscIP2scY-503" style="edgeStyle=orthogonalEdgeStyle;rounded=0;orthogonalLoop=1;jettySize=auto;html=1;exitX=1;exitY=0.5;exitDx=0;exitDy=0;entryX=0;entryY=0.5;entryDx=0;entryDy=0;strokeColor=#006666;" parent="1" source="_dYdHnB8K-xbscIP2scY-334" target="_dYdHnB8K-xbscIP2scY-340" edge="1">
          <mxGeometry relative="1" as="geometry" />
        </mxCell>
        <mxCell id="_dYdHnB8K-xbscIP2scY-505" style="edgeStyle=orthogonalEdgeStyle;rounded=0;orthogonalLoop=1;jettySize=auto;html=1;exitX=1;exitY=0.5;exitDx=0;exitDy=0;entryX=0;entryY=0.5;entryDx=0;entryDy=0;strokeColor=#006666;" parent="1" source="_dYdHnB8K-xbscIP2scY-298" target="_dYdHnB8K-xbscIP2scY-340" edge="1">
          <mxGeometry relative="1" as="geometry" />
        </mxCell>
        <mxCell id="_dYdHnB8K-xbscIP2scY-506" style="edgeStyle=orthogonalEdgeStyle;rounded=0;orthogonalLoop=1;jettySize=auto;html=1;exitX=1;exitY=0.5;exitDx=0;exitDy=0;entryX=0;entryY=0.5;entryDx=0;entryDy=0;" parent="1" source="_dYdHnB8K-xbscIP2scY-303" target="_dYdHnB8K-xbscIP2scY-340" edge="1">
          <mxGeometry relative="1" as="geometry" />
        </mxCell>
        <mxCell id="_dYdHnB8K-xbscIP2scY-507" style="edgeStyle=orthogonalEdgeStyle;rounded=0;orthogonalLoop=1;jettySize=auto;html=1;exitX=1;exitY=0.5;exitDx=0;exitDy=0;entryX=0;entryY=0.5;entryDx=0;entryDy=0;strokeColor=#006666;" parent="1" source="_dYdHnB8K-xbscIP2scY-382" target="_dYdHnB8K-xbscIP2scY-340" edge="1">
          <mxGeometry relative="1" as="geometry">
            <Array as="points">
              <mxPoint x="740" y="50" />
              <mxPoint x="740" y="380" />
              <mxPoint x="380" y="380" />
              <mxPoint x="380" y="790" />
            </Array>
          </mxGeometry>
        </mxCell>
        <mxCell id="_dYdHnB8K-xbscIP2scY-508" style="edgeStyle=orthogonalEdgeStyle;rounded=0;orthogonalLoop=1;jettySize=auto;html=1;exitX=1;exitY=0.5;exitDx=0;exitDy=0;entryX=0;entryY=0.5;entryDx=0;entryDy=0;strokeColor=#006666;" parent="1" source="_dYdHnB8K-xbscIP2scY-319" target="_dYdHnB8K-xbscIP2scY-340" edge="1">
          <mxGeometry relative="1" as="geometry">
            <Array as="points">
              <mxPoint x="10" y="-160" />
              <mxPoint x="10" y="570" />
              <mxPoint x="380" y="570" />
              <mxPoint x="380" y="790" />
            </Array>
          </mxGeometry>
        </mxCell>
        <mxCell id="_dYdHnB8K-xbscIP2scY-509" style="edgeStyle=orthogonalEdgeStyle;rounded=0;orthogonalLoop=1;jettySize=auto;html=1;exitX=1;exitY=0.5;exitDx=0;exitDy=0;entryX=0;entryY=0.5;entryDx=0;entryDy=0;strokeColor=#006666;" parent="1" source="_dYdHnB8K-xbscIP2scY-283" target="_dYdHnB8K-xbscIP2scY-340" edge="1">
          <mxGeometry relative="1" as="geometry" />
        </mxCell>
        <mxCell id="_dYdHnB8K-xbscIP2scY-511" style="edgeStyle=orthogonalEdgeStyle;rounded=0;orthogonalLoop=1;jettySize=auto;html=1;exitX=1;exitY=0.5;exitDx=0;exitDy=0;entryX=0;entryY=0.5;entryDx=0;entryDy=0;strokeColor=#006666;" parent="1" source="_dYdHnB8K-xbscIP2scY-288" target="_dYdHnB8K-xbscIP2scY-340" edge="1">
          <mxGeometry relative="1" as="geometry" />
        </mxCell>
        <mxCell id="_dYdHnB8K-xbscIP2scY-512" style="edgeStyle=orthogonalEdgeStyle;rounded=0;orthogonalLoop=1;jettySize=auto;html=1;exitX=1;exitY=0.5;exitDx=0;exitDy=0;" parent="1" source="_dYdHnB8K-xbscIP2scY-233" target="_dYdHnB8K-xbscIP2scY-287" edge="1">
          <mxGeometry relative="1" as="geometry" />
        </mxCell>
        <mxCell id="_dYdHnB8K-xbscIP2scY-513" style="edgeStyle=orthogonalEdgeStyle;rounded=0;orthogonalLoop=1;jettySize=auto;html=1;exitX=1;exitY=0.5;exitDx=0;exitDy=0;entryX=0;entryY=0.5;entryDx=0;entryDy=0;strokeColor=#0000CC;" parent="1" source="_dYdHnB8K-xbscIP2scY-233" target="_dYdHnB8K-xbscIP2scY-282" edge="1">
          <mxGeometry relative="1" as="geometry" />
        </mxCell>
        <mxCell id="_dYdHnB8K-xbscIP2scY-514" style="edgeStyle=orthogonalEdgeStyle;rounded=0;orthogonalLoop=1;jettySize=auto;html=1;exitX=1;exitY=0.5;exitDx=0;exitDy=0;entryX=0;entryY=0.5;entryDx=0;entryDy=0;strokeColor=#0000CC;" parent="1" source="_dYdHnB8K-xbscIP2scY-274" target="_dYdHnB8K-xbscIP2scY-282" edge="1">
          <mxGeometry relative="1" as="geometry" />
        </mxCell>
        <mxCell id="_dYdHnB8K-xbscIP2scY-515" style="edgeStyle=orthogonalEdgeStyle;rounded=0;orthogonalLoop=1;jettySize=auto;html=1;exitX=1;exitY=0.5;exitDx=0;exitDy=0;entryX=0;entryY=0.5;entryDx=0;entryDy=0;strokeColor=#0000CC;" parent="1" source="_dYdHnB8K-xbscIP2scY-274" target="_dYdHnB8K-xbscIP2scY-287" edge="1">
          <mxGeometry relative="1" as="geometry" />
        </mxCell>
        <mxCell id="_dYdHnB8K-xbscIP2scY-516" style="edgeStyle=orthogonalEdgeStyle;rounded=0;orthogonalLoop=1;jettySize=auto;html=1;exitX=1;exitY=0.5;exitDx=0;exitDy=0;entryX=0;entryY=0.5;entryDx=0;entryDy=0;" parent="1" source="_dYdHnB8K-xbscIP2scY-266" target="_dYdHnB8K-xbscIP2scY-302" edge="1">
          <mxGeometry relative="1" as="geometry" />
        </mxCell>
        <mxCell id="_dYdHnB8K-xbscIP2scY-517" style="edgeStyle=orthogonalEdgeStyle;rounded=0;orthogonalLoop=1;jettySize=auto;html=1;exitX=1;exitY=0.5;exitDx=0;exitDy=0;entryX=0;entryY=0.5;entryDx=0;entryDy=0;" parent="1" source="_dYdHnB8K-xbscIP2scY-266" target="_dYdHnB8K-xbscIP2scY-297" edge="1">
          <mxGeometry relative="1" as="geometry" />
        </mxCell>
        <mxCell id="_dYdHnB8K-xbscIP2scY-518" style="edgeStyle=orthogonalEdgeStyle;rounded=0;orthogonalLoop=1;jettySize=auto;html=1;exitX=1;exitY=0.5;exitDx=0;exitDy=0;entryX=0;entryY=0.5;entryDx=0;entryDy=0;" parent="1" source="_dYdHnB8K-xbscIP2scY-266" target="_dYdHnB8K-xbscIP2scY-333" edge="1">
          <mxGeometry relative="1" as="geometry" />
        </mxCell>
        <mxCell id="_dYdHnB8K-xbscIP2scY-519" style="edgeStyle=orthogonalEdgeStyle;rounded=0;orthogonalLoop=1;jettySize=auto;html=1;exitX=1;exitY=0.5;exitDx=0;exitDy=0;entryX=0;entryY=0.5;entryDx=0;entryDy=0;" parent="1" source="_dYdHnB8K-xbscIP2scY-248" target="_dYdHnB8K-xbscIP2scY-302" edge="1">
          <mxGeometry relative="1" as="geometry" />
        </mxCell>
        <mxCell id="_dYdHnB8K-xbscIP2scY-520" style="edgeStyle=orthogonalEdgeStyle;rounded=0;orthogonalLoop=1;jettySize=auto;html=1;exitX=1;exitY=0.5;exitDx=0;exitDy=0;entryX=0;entryY=0.5;entryDx=0;entryDy=0;" parent="1" source="_dYdHnB8K-xbscIP2scY-248" target="_dYdHnB8K-xbscIP2scY-297" edge="1">
          <mxGeometry relative="1" as="geometry" />
        </mxCell>
        <mxCell id="_dYdHnB8K-xbscIP2scY-521" style="edgeStyle=orthogonalEdgeStyle;rounded=0;orthogonalLoop=1;jettySize=auto;html=1;exitX=1;exitY=0.5;exitDx=0;exitDy=0;entryX=0;entryY=0.5;entryDx=0;entryDy=0;strokeColor=#99004D;" parent="1" source="_dYdHnB8K-xbscIP2scY-248" target="_dYdHnB8K-xbscIP2scY-333" edge="1">
          <mxGeometry relative="1" as="geometry" />
        </mxCell>
        <mxCell id="_dYdHnB8K-xbscIP2scY-522" style="edgeStyle=orthogonalEdgeStyle;rounded=0;orthogonalLoop=1;jettySize=auto;html=1;exitX=1;exitY=0.5;exitDx=0;exitDy=0;entryX=0;entryY=0.5;entryDx=0;entryDy=0;strokeColor=#99004D;" parent="1" source="_dYdHnB8K-xbscIP2scY-243" target="_dYdHnB8K-xbscIP2scY-333" edge="1">
          <mxGeometry relative="1" as="geometry" />
        </mxCell>
        <mxCell id="_dYdHnB8K-xbscIP2scY-523" style="edgeStyle=orthogonalEdgeStyle;rounded=0;orthogonalLoop=1;jettySize=auto;html=1;exitX=1;exitY=0.5;exitDx=0;exitDy=0;entryX=0;entryY=0.5;entryDx=0;entryDy=0;strokeColor=#99004D;" parent="1" source="_dYdHnB8K-xbscIP2scY-243" target="_dYdHnB8K-xbscIP2scY-297" edge="1">
          <mxGeometry relative="1" as="geometry" />
        </mxCell>
        <mxCell id="_dYdHnB8K-xbscIP2scY-524" style="edgeStyle=orthogonalEdgeStyle;rounded=0;orthogonalLoop=1;jettySize=auto;html=1;exitX=1;exitY=0.5;exitDx=0;exitDy=0;entryX=0;entryY=0.5;entryDx=0;entryDy=0;strokeColor=#99004D;" parent="1" source="_dYdHnB8K-xbscIP2scY-243" target="_dYdHnB8K-xbscIP2scY-302" edge="1">
          <mxGeometry relative="1" as="geometry" />
        </mxCell>
        <mxCell id="_dYdHnB8K-xbscIP2scY-525" style="edgeStyle=orthogonalEdgeStyle;rounded=0;orthogonalLoop=1;jettySize=auto;html=1;exitX=1;exitY=0.5;exitDx=0;exitDy=0;entryX=0;entryY=0.5;entryDx=0;entryDy=0;strokeColor=#99004D;" parent="1" source="_dYdHnB8K-xbscIP2scY-266" target="_dYdHnB8K-xbscIP2scY-292" edge="1">
          <mxGeometry relative="1" as="geometry">
            <Array as="points">
              <mxPoint x="20" y="930" />
              <mxPoint x="20" y="1110" />
            </Array>
          </mxGeometry>
        </mxCell>
        <mxCell id="_dYdHnB8K-xbscIP2scY-526" style="edgeStyle=orthogonalEdgeStyle;rounded=0;orthogonalLoop=1;jettySize=auto;html=1;exitX=1;exitY=0.5;exitDx=0;exitDy=0;entryX=0;entryY=0.5;entryDx=0;entryDy=0;strokeColor=#0000CC;" parent="1" source="_dYdHnB8K-xbscIP2scY-274" target="_dYdHnB8K-xbscIP2scY-278" edge="1">
          <mxGeometry relative="1" as="geometry">
            <Array as="points">
              <mxPoint x="20" y="1390" />
              <mxPoint x="20" y="1310" />
              <mxPoint x="390" y="1310" />
              <mxPoint x="390" y="1270" />
            </Array>
          </mxGeometry>
        </mxCell>
        <mxCell id="_dYdHnB8K-xbscIP2scY-527" style="edgeStyle=orthogonalEdgeStyle;rounded=0;orthogonalLoop=1;jettySize=auto;html=1;exitX=1;exitY=0.5;exitDx=0;exitDy=0;entryX=0;entryY=0.5;entryDx=0;entryDy=0;strokeColor=#00CC00;" parent="1" source="_dYdHnB8K-xbscIP2scY-221" target="_dYdHnB8K-xbscIP2scY-238" edge="1">
          <mxGeometry relative="1" as="geometry">
            <Array as="points">
              <mxPoint x="-340" y="1030" />
              <mxPoint x="-340" y="1290" />
              <mxPoint x="370" y="1290" />
              <mxPoint x="370" y="950" />
            </Array>
          </mxGeometry>
        </mxCell>
        <mxCell id="_dYdHnB8K-xbscIP2scY-528" style="edgeStyle=orthogonalEdgeStyle;rounded=0;orthogonalLoop=1;jettySize=auto;html=1;exitX=1;exitY=0.5;exitDx=0;exitDy=0;entryX=0;entryY=0.5;entryDx=0;entryDy=0;strokeColor=#994C00;" parent="1" source="_dYdHnB8K-xbscIP2scY-169" target="_dYdHnB8K-xbscIP2scY-308" edge="1">
          <mxGeometry relative="1" as="geometry">
            <Array as="points">
              <mxPoint x="-340" y="-110" />
              <mxPoint x="-340" y="-40" />
              <mxPoint x="30" y="-40" />
              <mxPoint x="30" y="590" />
              <mxPoint x="390" y="590" />
              <mxPoint x="390" y="630" />
            </Array>
          </mxGeometry>
        </mxCell>
        <mxCell id="_dYdHnB8K-xbscIP2scY-529" style="edgeStyle=orthogonalEdgeStyle;rounded=0;orthogonalLoop=1;jettySize=auto;html=1;exitX=1;exitY=0.5;exitDx=0;exitDy=0;entryX=0;entryY=0.5;entryDx=0;entryDy=0;strokeColor=#006666;" parent="1" source="_dYdHnB8K-xbscIP2scY-314" target="_dYdHnB8K-xbscIP2scY-340" edge="1">
          <mxGeometry relative="1" as="geometry">
            <Array as="points">
              <mxPoint x="10" y="-470" />
              <mxPoint x="10" y="570" />
              <mxPoint x="380" y="570" />
              <mxPoint x="380" y="790" />
            </Array>
          </mxGeometry>
        </mxCell>
      </root>
    </mxGraphModel>
  </diagram>
</mxfile>
